<svg width="120" height="97" viewBox="0 0 120 97" fill="none" xmlns="http://www.w3.org/2000/svg">
<path d="M0.245026 64.7543H1.50923V63H6.14346V64.7472H7.40767V61.924H6.59801V55.7273H1.94957L1.75781 58.8026C1.64062 60.7628 1.22514 61.5334 0.731531 61.924H0.245026V64.7543ZM2.26562 61.924C2.6527 61.2884 2.93324 60.2905 3.02201 58.8026L3.13565 56.8317H5.3338V61.924H2.26562Z" fill="url(#paint0_linear_21_217)"/>
<path d="M10.8034 63.1066C12.4015 63.1066 13.4171 61.9809 13.4171 60.2941C13.4171 58.6037 12.4015 57.4745 10.8034 57.4745C9.20543 57.4745 8.18981 58.6037 8.18981 60.2941C8.18981 61.9809 9.20543 63.1066 10.8034 63.1066ZM10.8105 62.0767C9.92631 62.0767 9.49307 61.2884 9.49307 60.2905C9.49307 59.2927 9.92631 58.4936 10.8105 58.4936C11.6806 58.4936 12.1138 59.2927 12.1138 60.2905C12.1138 61.2884 11.6806 62.0767 10.8105 62.0767Z" fill="url(#paint1_linear_21_217)"/>
<path d="M34.5385 0.968075C20.6326 0.907349 11.2507 10.016 11.3114 22.5252C11.3418 34.1236 19.3878 42.534 30.4093 42.534C37.2408 42.534 43.3132 39.2245 46.0762 33.7593H46.5012C46.4709 46.0863 42.1898 53.5858 34.0831 53.5858C29.3162 53.5858 25.8853 50.9746 24.8833 46.4507H11.9187C13.1332 56.9256 21.6346 64.8502 34.0831 64.8502C49.4767 64.8502 59.4052 52.4017 59.3748 31.2999C59.3445 8.77116 47.321 1.0288 34.5385 0.968075ZM34.6296 11.2912C40.6717 11.2912 45.1349 16.2099 45.1957 22.1305C45.226 28.0815 40.5199 33.0002 34.5082 33.0002C28.4357 33.0002 24.0939 28.2637 24.0636 22.1609C24.0028 16.0885 28.5268 11.2912 34.6296 11.2912Z" fill="url(#paint2_linear_21_217)"/>
<path d="M88.5893 65.3663C104.226 65.3663 113.669 53.4643 113.699 32.9699C113.729 12.6272 104.165 0.968075 88.5893 0.968075C72.9832 0.968075 63.5102 12.5968 63.4798 32.9699C63.4191 53.4036 72.9224 65.336 88.5893 65.3663ZM88.5893 54.4663C81.4542 54.4663 76.8392 47.3008 76.8695 32.9699C76.8999 18.8514 81.4846 11.7467 88.5893 11.7467C95.6637 11.7467 100.279 18.8514 100.279 32.9699C100.309 47.3008 95.6941 54.4663 88.5893 54.4663Z" fill="url(#paint3_linear_21_217)"/>
<path d="M115.531 62.3637C115.536 63.4418 116.23 64.3665 117.521 64.3665C118.808 64.3665 119.528 63.4418 119.52 62.3637V61.9034C119.528 60.8125 118.825 59.9006 117.521 59.9006C116.247 59.9006 115.536 60.8253 115.531 61.9034V62.3637ZM111.006 57.3694C111.014 58.4475 111.705 59.3552 112.996 59.3552C114.287 59.3552 115.003 58.4603 114.999 57.3694V56.9091C115.003 55.8182 114.304 54.9063 112.996 54.9063C111.734 54.9063 111.014 55.8182 111.006 56.9091V57.3694ZM111.449 64H112.612L118.612 55.2728H117.449L111.449 64ZM116.891 61.9034C116.895 61.5242 117.04 61.1108 117.521 61.1108C118.033 61.1108 118.156 61.5242 118.148 61.9034V62.3637C118.156 62.7429 118.016 63.1392 117.521 63.1392C117.036 63.1392 116.895 62.7302 116.891 62.3637V61.9034ZM112.378 56.9091C112.386 56.5427 112.514 56.1165 112.996 56.1165C113.507 56.1165 113.631 56.5299 113.622 56.9091V57.3694C113.631 57.7486 113.49 58.1449 112.996 58.1449C112.527 58.1449 112.386 57.7486 112.378 57.3694V56.9091Z" fill="url(#paint4_linear_21_217)"/>
<path d="M9 69V77.7273H10.517V71.7188H10.598L13.0099 77.7017H14.1435L16.5554 71.7315H16.6364V77.7273H18.1534V69H16.2188L13.6278 75.3239H13.5256L10.9347 69H9Z" fill="url(#paint5_linear_21_217)"/>
<path d="M22.7045 77.8551C24.2301 77.8551 25.2784 77.1094 25.5511 75.9716L24.1108 75.8097C23.902 76.3636 23.3906 76.6534 22.7259 76.6534C21.7287 76.6534 21.0682 75.9972 21.0554 74.8764H25.6151V74.4034C25.6151 72.1065 24.2344 71.0966 22.6236 71.0966C20.7486 71.0966 19.5256 72.473 19.5256 74.4929C19.5256 76.5469 20.7315 77.8551 22.7045 77.8551ZM21.0597 73.8366C21.1065 73.0014 21.7244 72.2983 22.6449 72.2983C23.5312 72.2983 24.1278 72.946 24.1364 73.8366H21.0597Z" fill="url(#paint6_linear_21_217)"/>
<path d="M28.4073 71.1818H26.9201V77.7273H28.4073V75.081H30.9428V77.7273H32.4258V71.1818H30.9428V73.8153H28.4073V71.1818Z" fill="url(#paint7_linear_21_217)"/>
<path d="M35.4737 73.3125V71.1818H33.9865V77.7273H36.9609C38.6271 77.7273 39.5859 76.8068 39.5902 75.5199C39.5859 74.1989 38.6271 73.3125 36.9609 73.3125H35.4737ZM35.4737 74.5781H36.9609C37.63 74.5781 38.1115 74.9744 38.1115 75.5412C38.1115 76.0824 37.63 76.4616 36.9609 76.4616H35.4737V74.5781Z" fill="url(#paint8_linear_21_217)"/>
<path d="M40.9123 71.1818V77.7273H49.4904V71.1818H48.0032V76.4574H45.945V71.1818H44.4577V76.4574H42.3995V71.1818H40.9123Z" fill="url(#paint9_linear_21_217)"/>
<path d="M53.9467 77.8551C55.4723 77.8551 56.5206 77.1094 56.7933 75.9716L55.353 75.8097C55.1442 76.3636 54.6328 76.6534 53.968 76.6534C52.9709 76.6534 52.3104 75.9972 52.2976 74.8764H56.8572V74.4034C56.8572 72.1065 55.4766 71.0966 53.8658 71.0966C51.9908 71.0966 50.7678 72.473 50.7678 74.4929C50.7678 76.5469 51.9737 77.8551 53.9467 77.8551ZM52.3018 73.8366C52.3487 73.0014 52.9666 72.2983 53.8871 72.2983C54.7734 72.2983 55.37 72.946 55.3786 73.8366H52.3018Z" fill="url(#paint10_linear_21_217)"/>
<path d="M61.1389 77.7273H64.3093C65.8434 77.7273 66.7212 77.0327 66.7212 75.9503C66.7212 75.0341 66.0096 74.3949 64.9826 74.3054C65.8562 74.1435 66.4016 73.679 66.4016 72.9418C66.4016 71.8381 65.4343 71.1818 63.8874 71.1818H61.1389V77.7273ZM62.5835 76.5128V74.8892H64.3093C64.8761 74.8892 65.2212 75.2173 65.2212 75.7585C65.2212 76.2273 64.8761 76.5128 64.3093 76.5128H62.5835ZM62.5835 73.892V72.4176H63.8874C64.5309 72.4176 64.9229 72.6903 64.9229 73.1378C64.9229 73.6065 64.5437 73.892 63.9173 73.892H62.5835Z" fill="url(#paint11_linear_21_217)"/>
<path d="M67.9943 80.1818H69.5369V76.696H69.6009C69.8438 77.1733 70.3509 77.8423 71.4759 77.8423C73.0185 77.8423 74.1733 76.6193 74.1733 74.4631C74.1733 72.2812 72.9844 71.0966 71.4716 71.0966C70.3168 71.0966 69.8352 71.7912 69.6009 72.2642H69.5114V71.1818H67.9943V80.1818ZM69.5071 74.4545C69.5071 73.1847 70.0526 72.3622 71.0455 72.3622C72.0724 72.3622 72.6009 73.2358 72.6009 74.4545C72.6009 75.6818 72.0639 76.5767 71.0455 76.5767C70.0611 76.5767 69.5071 75.7244 69.5071 74.4545Z" fill="url(#paint12_linear_21_217)"/>
<path d="M78.392 77.8551C79.9176 77.8551 80.9659 77.1094 81.2386 75.9716L79.7983 75.8097C79.5895 76.3636 79.0781 76.6534 78.4134 76.6534C77.4162 76.6534 76.7557 75.9972 76.7429 74.8764H81.3026V74.4034C81.3026 72.1065 79.9219 71.0966 78.3111 71.0966C76.4361 71.0966 75.2131 72.473 75.2131 74.4929C75.2131 76.5469 76.419 77.8551 78.392 77.8551ZM76.7472 73.8366C76.794 73.0014 77.4119 72.2983 78.3324 72.2983C79.2188 72.2983 79.8153 72.946 79.8239 73.8366H76.7472Z" fill="url(#paint13_linear_21_217)"/>
<path d="M86.3746 75.9332L84.4826 71.1818H82.6076V77.7273H84.0948V73.3168L85.8377 77.7273H86.9158L88.7184 73.2699V77.7273H90.1928V71.1818H88.3178L86.3746 75.9332Z" fill="url(#paint14_linear_21_217)"/>
<path d="M94.646 77.8551C96.1715 77.8551 97.2198 77.1094 97.4925 75.9716L96.0522 75.8097C95.8434 76.3636 95.332 76.6534 94.6673 76.6534C93.6701 76.6534 93.0096 75.9972 92.9968 74.8764H97.5565V74.4034C97.5565 72.1065 96.1758 71.0966 94.565 71.0966C92.69 71.0966 91.467 72.473 91.467 74.4929C91.467 76.5469 92.6729 77.8551 94.646 77.8551ZM93.0011 73.8366C93.0479 73.0014 93.6658 72.2983 94.5863 72.2983C95.4727 72.2983 96.0692 72.946 96.0778 73.8366H93.0011Z" fill="url(#paint15_linear_21_217)"/>
<path d="M100.349 71.1818H98.8615V77.7273H100.349V75.081H102.884V77.7273H104.367V71.1818H102.884V73.8153H100.349V71.1818Z" fill="url(#paint16_linear_21_217)"/>
<path d="M107.415 75.6392V71.1818H105.928V77.7273H107.517L110.13 73.2656V77.7273H111.621V71.1818H110.036L107.415 75.6392Z" fill="url(#paint17_linear_21_217)"/>
<path d="M32.0391 82.2727H30.7997V87.7273H32.0391V85.522H34.152V87.7273H35.3878V82.2727H34.152V84.4673H32.0391V82.2727Z" fill="url(#paint18_linear_21_217)"/>
<path d="M38.258 87.8374C39.1138 87.8374 39.6252 87.4361 39.8596 86.978H39.9022V87.7273H41.138V84.0767C41.138 82.6349 39.9625 82.2017 38.9221 82.2017C37.775 82.2017 36.8944 82.7131 36.6103 83.7074L37.8105 83.8778C37.9384 83.505 38.3006 83.1854 38.9292 83.1854C39.5257 83.1854 39.8524 83.4908 39.8524 84.027V84.0483C39.8524 84.4176 39.4654 84.4354 38.503 84.5384C37.4448 84.652 36.4327 84.968 36.4327 86.1967C36.4327 87.2692 37.2175 87.8374 38.258 87.8374ZM38.5918 86.8928C38.0556 86.8928 37.6721 86.6477 37.6721 86.1754C37.6721 85.6818 38.1017 85.4758 38.677 85.3942C39.0144 85.348 39.6891 85.2628 39.856 85.1278V85.7706C39.856 86.3778 39.3659 86.8928 38.5918 86.8928Z" fill="url(#paint19_linear_21_217)"/>
<path d="M46.1504 85.9872V82.2727H44.911V87.7273H46.2356L48.4125 84.0092V87.7273H49.6554V82.2727H48.3343L46.1504 85.9872Z" fill="url(#paint20_linear_21_217)"/>
<path d="M50.6736 86.2322C50.7056 87.2443 51.6325 87.8338 52.8931 87.8338C54.1857 87.8338 55.1197 87.2195 55.1197 86.2145C55.1197 85.4794 54.619 84.9751 53.9727 84.9361V84.8793C54.5977 84.7124 54.9954 84.3217 54.9954 83.7322C54.9954 82.8125 54.1999 82.2017 52.9215 82.2017C51.7283 82.2017 50.8299 82.8196 50.8121 83.7713H52.0799C52.0941 83.4055 52.4705 83.1499 52.9819 83.1499C53.4933 83.1499 53.8022 83.4233 53.8022 83.8281C53.8022 84.201 53.5181 84.478 52.9854 84.478H52.1509V85.3906H52.9854C53.5217 85.3906 53.8732 85.6925 53.8732 86.1328C53.8732 86.63 53.4364 86.8714 52.886 86.8714C52.3427 86.8714 51.9734 86.6371 51.9485 86.2322H50.6736Z" fill="url(#paint21_linear_21_217)"/>
<path d="M56.9308 89.7727C57.9322 89.7727 58.511 89.2578 58.82 88.3878L61.011 82.2798L59.6367 82.2727L58.3761 86.392H58.3192L57.0621 82.2727H55.6985L57.6765 87.8409L57.5664 88.1357C57.3285 88.7571 56.9521 88.7997 56.391 88.6364L56.0927 89.6378C56.2667 89.7088 56.5792 89.7727 56.9308 89.7727Z" fill="url(#paint22_linear_21_217)"/>
<path d="M66.3031 82.2727H65.0673V84.9361C64.7548 85.0142 64.4458 85.0568 64.1085 85.0568C63.3485 85.0568 62.9757 84.7869 62.9757 84.0838V82.2656H61.747V84.0838C61.747 85.4759 62.6525 86.1115 64.1085 86.1115C64.4281 86.1115 64.7619 86.0689 65.0673 85.9979V87.7273H66.3031V82.2727Z" fill="url(#paint23_linear_21_217)"/>
<path d="M70.0114 87.8338C71.2827 87.8338 72.1562 87.2124 72.3835 86.2642L71.1832 86.1293C71.0092 86.5909 70.5831 86.8324 70.0291 86.8324C69.1982 86.8324 68.6477 86.2855 68.6371 85.3516H72.4368V84.9574C72.4368 83.0433 71.2862 82.2017 69.9439 82.2017C68.3814 82.2017 67.3622 83.3487 67.3622 85.032C67.3622 86.7436 68.3672 87.8338 70.0114 87.8338ZM68.6406 84.4851C68.6797 83.7891 69.1946 83.2031 69.9616 83.2031C70.7003 83.2031 71.1974 83.7429 71.2045 84.4851H68.6406Z" fill="url(#paint24_linear_21_217)"/>
<path d="M74.7637 82.2727H73.5243V87.7273H74.7637V85.522H76.8766V87.7273H78.1124V82.2727H76.8766V84.4673H74.7637V82.2727Z" fill="url(#paint25_linear_21_217)"/>
<path d="M80.6523 85.9872V82.2727H79.413V87.7273H80.7376L82.9144 84.0092V87.7273H84.1573V82.2727H82.8363L80.6523 85.9872Z" fill="url(#paint26_linear_21_217)"/>
<path d="M87.8922 87.8338C89.1635 87.8338 90.0371 87.2124 90.2644 86.2642L89.0641 86.1293C88.8901 86.5909 88.464 86.8324 87.91 86.8324C87.079 86.8324 86.5286 86.2855 86.5179 85.3516H90.3176V84.9574C90.3176 83.0433 89.1671 82.2017 87.8248 82.2017C86.2623 82.2017 85.2431 83.3487 85.2431 85.032C85.2431 86.7436 86.248 87.8338 87.8922 87.8338ZM86.5215 84.4851C86.5605 83.7891 87.0755 83.2031 87.8425 83.2031C88.5811 83.2031 89.0783 83.7429 89.0854 84.4851H86.5215Z" fill="url(#paint27_linear_21_217)"/>
<path d="M39.6676 95.7273H40.696V94.0824H41.1989L42.3949 95.7273H43.6392L42.0057 93.5057L43.6222 91.3636H42.3835L41.071 93.125H40.696V91.3636H39.6676V95.7273Z" fill="url(#paint28_linear_21_217)"/>
<path d="M45.478 95.8153C46.1626 95.8153 46.5717 95.4943 46.7592 95.1278H46.7933V95.7273H47.782V92.8068C47.782 91.6534 46.8416 91.3068 46.0092 91.3068C45.0916 91.3068 44.3871 91.7159 44.1598 92.5114L45.12 92.6477C45.2223 92.3494 45.5121 92.0938 46.0149 92.0938C46.4922 92.0938 46.7536 92.3381 46.7536 92.767V92.7841C46.7536 93.0795 46.4439 93.0938 45.674 93.1761C44.8274 93.267 44.0178 93.5199 44.0178 94.5028C44.0178 95.3608 44.6456 95.8153 45.478 95.8153ZM45.745 95.0597C45.3161 95.0597 45.0092 94.8636 45.0092 94.4858C45.0092 94.0909 45.353 93.9261 45.8132 93.8608C46.0831 93.8239 46.6229 93.7557 46.7564 93.6477V94.1619C46.7564 94.6477 46.3643 95.0597 45.745 95.0597Z" fill="url(#paint29_linear_21_217)"/>
<path d="M49.8075 91.3636H48.8161V95.7273H49.8075V93.9631H51.4979V95.7273H52.4865V91.3636H51.4979V93.1193H49.8075V91.3636Z" fill="url(#paint30_linear_21_217)"/>
<path d="M53.1406 96.9943H54.152V95.7273H57.0071V96.9943H58.0014V94.8807H57.3253V91.3636H54.1719L54.0469 92.892C53.9645 93.8693 53.8565 94.5938 53.4872 94.8807H53.1406V96.9943ZM54.544 94.8807C54.8196 94.4744 54.9219 93.8153 54.9957 92.892L55.0639 92.1932H56.3423V94.8807H54.544Z" fill="url(#paint31_linear_21_217)"/>
<path d="M59.7607 94.3352V91.3636H58.7692V95.7273H59.8288L61.5703 92.7528V95.7273H62.5646V91.3636H61.5078L59.7607 94.3352Z" fill="url(#paint32_linear_21_217)"/>
<path d="M63.2344 96.9943H64.2457V95.7273H67.1009V96.9943H68.0952V94.8807H67.419V91.3636H64.2656L64.1406 92.892C64.0582 93.8693 63.9503 94.5938 63.581 94.8807H63.2344V96.9943ZM64.6378 94.8807C64.9134 94.4744 65.0156 93.8153 65.0895 92.892L65.1577 92.1932H66.4361V94.8807H64.6378Z" fill="url(#paint33_linear_21_217)"/>
<path d="M70.1186 95.8153C70.8033 95.8153 71.2124 95.4943 71.3999 95.1278H71.4339V95.7273H72.4226V92.8068C72.4226 91.6534 71.4822 91.3068 70.6499 91.3068C69.7322 91.3068 69.0277 91.7159 68.8004 92.5114L69.7607 92.6477C69.8629 92.3494 70.1527 92.0938 70.6555 92.0938C71.1328 92.0938 71.3942 92.3381 71.3942 92.767V92.7841C71.3942 93.0795 71.0845 93.0938 70.3146 93.1761C69.468 93.267 68.6584 93.5199 68.6584 94.5028C68.6584 95.3608 69.2862 95.8153 70.1186 95.8153ZM70.3857 95.0597C69.9567 95.0597 69.6499 94.8636 69.6499 94.4858C69.6499 94.0909 69.9936 93.9261 70.4538 93.8608C70.7237 93.8239 71.2635 93.7557 71.397 93.6477V94.1619C71.397 94.6477 71.005 95.0597 70.3857 95.0597Z" fill="url(#paint34_linear_21_217)"/>
<path d="M72.968 92.2074H74.38V95.7273H75.3743V92.2074H76.7862V91.3636H72.968V92.2074Z" fill="url(#paint35_linear_21_217)"/>
<path d="M78.6811 95.8153C79.3658 95.8153 79.7749 95.4943 79.9624 95.1278H79.9964V95.7273H80.9851V92.8068C80.9851 91.6534 80.0447 91.3068 79.2124 91.3068C78.2947 91.3068 77.5902 91.7159 77.3629 92.5114L78.3232 92.6477C78.4254 92.3494 78.7152 92.0938 79.218 92.0938C79.6953 92.0938 79.9567 92.3381 79.9567 92.767V92.7841C79.9567 93.0795 79.647 93.0938 78.8771 93.1761C78.0305 93.267 77.2209 93.5199 77.2209 94.5028C77.2209 95.3608 77.8487 95.8153 78.6811 95.8153ZM78.9482 95.0597C78.5192 95.0597 78.2124 94.8636 78.2124 94.4858C78.2124 94.0909 78.5561 93.9261 79.0163 93.8608C79.2862 93.8239 79.826 93.7557 79.9595 93.6477V94.1619C79.9595 94.6477 79.5675 95.0597 78.9482 95.0597Z" fill="url(#paint36_linear_21_217)"/>
<path d="M82.7825 92H83.2157L83.1765 91.2969L83.7825 91.684L84 91.316L83.3512 91L84 90.684L83.7825 90.316L83.1765 90.7031L83.2157 90H82.7825L82.8235 90.7031L82.2175 90.316L82 90.684L82.6471 91L82 91.316L82.2175 91.684L82.8235 91.2969L82.7825 92Z" fill="black"/>
<defs>
<linearGradient id="paint0_linear_21_217" x1="59.8825" y1="0.967773" x2="59.8825" y2="96.9943" gradientUnits="userSpaceOnUse">
<stop stop-color="#9429BD"/>
<stop offset="0.296875" stop-color="#5814C5"/>
<stop offset="1" stop-color="#061042"/>
</linearGradient>
<linearGradient id="paint1_linear_21_217" x1="59.8825" y1="0.967773" x2="59.8825" y2="96.9943" gradientUnits="userSpaceOnUse">
<stop stop-color="#9429BD"/>
<stop offset="0.296875" stop-color="#5814C5"/>
<stop offset="1" stop-color="#061042"/>
</linearGradient>
<linearGradient id="paint2_linear_21_217" x1="59.8825" y1="0.967773" x2="59.8825" y2="96.9943" gradientUnits="userSpaceOnUse">
<stop stop-color="#9429BD"/>
<stop offset="0.296875" stop-color="#5814C5"/>
<stop offset="1" stop-color="#061042"/>
</linearGradient>
<linearGradient id="paint3_linear_21_217" x1="59.8825" y1="0.967773" x2="59.8825" y2="96.9943" gradientUnits="userSpaceOnUse">
<stop stop-color="#9429BD"/>
<stop offset="0.296875" stop-color="#5814C5"/>
<stop offset="1" stop-color="#061042"/>
</linearGradient>
<linearGradient id="paint4_linear_21_217" x1="59.8825" y1="0.967773" x2="59.8825" y2="96.9943" gradientUnits="userSpaceOnUse">
<stop stop-color="#9429BD"/>
<stop offset="0.296875" stop-color="#5814C5"/>
<stop offset="1" stop-color="#061042"/>
</linearGradient>
<linearGradient id="paint5_linear_21_217" x1="59.8825" y1="0.967773" x2="59.8825" y2="96.9943" gradientUnits="userSpaceOnUse">
<stop stop-color="#9429BD"/>
<stop offset="0.296875" stop-color="#5814C5"/>
<stop offset="1" stop-color="#061042"/>
</linearGradient>
<linearGradient id="paint6_linear_21_217" x1="59.8825" y1="0.967773" x2="59.8825" y2="96.9943" gradientUnits="userSpaceOnUse">
<stop stop-color="#9429BD"/>
<stop offset="0.296875" stop-color="#5814C5"/>
<stop offset="1" stop-color="#061042"/>
</linearGradient>
<linearGradient id="paint7_linear_21_217" x1="59.8825" y1="0.967773" x2="59.8825" y2="96.9943" gradientUnits="userSpaceOnUse">
<stop stop-color="#9429BD"/>
<stop offset="0.296875" stop-color="#5814C5"/>
<stop offset="1" stop-color="#061042"/>
</linearGradient>
<linearGradient id="paint8_linear_21_217" x1="59.8825" y1="0.967773" x2="59.8825" y2="96.9943" gradientUnits="userSpaceOnUse">
<stop stop-color="#9429BD"/>
<stop offset="0.296875" stop-color="#5814C5"/>
<stop offset="1" stop-color="#061042"/>
</linearGradient>
<linearGradient id="paint9_linear_21_217" x1="59.8825" y1="0.967773" x2="59.8825" y2="96.9943" gradientUnits="userSpaceOnUse">
<stop stop-color="#9429BD"/>
<stop offset="0.296875" stop-color="#5814C5"/>
<stop offset="1" stop-color="#061042"/>
</linearGradient>
<linearGradient id="paint10_linear_21_217" x1="59.8825" y1="0.967773" x2="59.8825" y2="96.9943" gradientUnits="userSpaceOnUse">
<stop stop-color="#9429BD"/>
<stop offset="0.296875" stop-color="#5814C5"/>
<stop offset="1" stop-color="#061042"/>
</linearGradient>
<linearGradient id="paint11_linear_21_217" x1="59.8825" y1="0.967773" x2="59.8825" y2="96.9943" gradientUnits="userSpaceOnUse">
<stop stop-color="#9429BD"/>
<stop offset="0.296875" stop-color="#5814C5"/>
<stop offset="1" stop-color="#061042"/>
</linearGradient>
<linearGradient id="paint12_linear_21_217" x1="59.8825" y1="0.967773" x2="59.8825" y2="96.9943" gradientUnits="userSpaceOnUse">
<stop stop-color="#9429BD"/>
<stop offset="0.296875" stop-color="#5814C5"/>
<stop offset="1" stop-color="#061042"/>
</linearGradient>
<linearGradient id="paint13_linear_21_217" x1="59.8825" y1="0.967773" x2="59.8825" y2="96.9943" gradientUnits="userSpaceOnUse">
<stop stop-color="#9429BD"/>
<stop offset="0.296875" stop-color="#5814C5"/>
<stop offset="1" stop-color="#061042"/>
</linearGradient>
<linearGradient id="paint14_linear_21_217" x1="59.8825" y1="0.967773" x2="59.8825" y2="96.9943" gradientUnits="userSpaceOnUse">
<stop stop-color="#9429BD"/>
<stop offset="0.296875" stop-color="#5814C5"/>
<stop offset="1" stop-color="#061042"/>
</linearGradient>
<linearGradient id="paint15_linear_21_217" x1="59.8825" y1="0.967773" x2="59.8825" y2="96.9943" gradientUnits="userSpaceOnUse">
<stop stop-color="#9429BD"/>
<stop offset="0.296875" stop-color="#5814C5"/>
<stop offset="1" stop-color="#061042"/>
</linearGradient>
<linearGradient id="paint16_linear_21_217" x1="59.8825" y1="0.967773" x2="59.8825" y2="96.9943" gradientUnits="userSpaceOnUse">
<stop stop-color="#9429BD"/>
<stop offset="0.296875" stop-color="#5814C5"/>
<stop offset="1" stop-color="#061042"/>
</linearGradient>
<linearGradient id="paint17_linear_21_217" x1="59.8825" y1="0.967773" x2="59.8825" y2="96.9943" gradientUnits="userSpaceOnUse">
<stop stop-color="#9429BD"/>
<stop offset="0.296875" stop-color="#5814C5"/>
<stop offset="1" stop-color="#061042"/>
</linearGradient>
<linearGradient id="paint18_linear_21_217" x1="59.8825" y1="0.967773" x2="59.8825" y2="96.9943" gradientUnits="userSpaceOnUse">
<stop stop-color="#9429BD"/>
<stop offset="0.296875" stop-color="#5814C5"/>
<stop offset="1" stop-color="#061042"/>
</linearGradient>
<linearGradient id="paint19_linear_21_217" x1="59.8825" y1="0.967773" x2="59.8825" y2="96.9943" gradientUnits="userSpaceOnUse">
<stop stop-color="#9429BD"/>
<stop offset="0.296875" stop-color="#5814C5"/>
<stop offset="1" stop-color="#061042"/>
</linearGradient>
<linearGradient id="paint20_linear_21_217" x1="59.8825" y1="0.967773" x2="59.8825" y2="96.9943" gradientUnits="userSpaceOnUse">
<stop stop-color="#9429BD"/>
<stop offset="0.296875" stop-color="#5814C5"/>
<stop offset="1" stop-color="#061042"/>
</linearGradient>
<linearGradient id="paint21_linear_21_217" x1="59.8825" y1="0.967773" x2="59.8825" y2="96.9943" gradientUnits="userSpaceOnUse">
<stop stop-color="#9429BD"/>
<stop offset="0.296875" stop-color="#5814C5"/>
<stop offset="1" stop-color="#061042"/>
</linearGradient>
<linearGradient id="paint22_linear_21_217" x1="59.8825" y1="0.967773" x2="59.8825" y2="96.9943" gradientUnits="userSpaceOnUse">
<stop stop-color="#9429BD"/>
<stop offset="0.296875" stop-color="#5814C5"/>
<stop offset="1" stop-color="#061042"/>
</linearGradient>
<linearGradient id="paint23_linear_21_217" x1="59.8825" y1="0.967773" x2="59.8825" y2="96.9943" gradientUnits="userSpaceOnUse">
<stop stop-color="#9429BD"/>
<stop offset="0.296875" stop-color="#5814C5"/>
<stop offset="1" stop-color="#061042"/>
</linearGradient>
<linearGradient id="paint24_linear_21_217" x1="59.8825" y1="0.967773" x2="59.8825" y2="96.9943" gradientUnits="userSpaceOnUse">
<stop stop-color="#9429BD"/>
<stop offset="0.296875" stop-color="#5814C5"/>
<stop offset="1" stop-color="#061042"/>
</linearGradient>
<linearGradient id="paint25_linear_21_217" x1="59.8825" y1="0.967773" x2="59.8825" y2="96.9943" gradientUnits="userSpaceOnUse">
<stop stop-color="#9429BD"/>
<stop offset="0.296875" stop-color="#5814C5"/>
<stop offset="1" stop-color="#061042"/>
</linearGradient>
<linearGradient id="paint26_linear_21_217" x1="59.8825" y1="0.967773" x2="59.8825" y2="96.9943" gradientUnits="userSpaceOnUse">
<stop stop-color="#9429BD"/>
<stop offset="0.296875" stop-color="#5814C5"/>
<stop offset="1" stop-color="#061042"/>
</linearGradient>
<linearGradient id="paint27_linear_21_217" x1="59.8825" y1="0.967773" x2="59.8825" y2="96.9943" gradientUnits="userSpaceOnUse">
<stop stop-color="#9429BD"/>
<stop offset="0.296875" stop-color="#5814C5"/>
<stop offset="1" stop-color="#061042"/>
</linearGradient>
<linearGradient id="paint28_linear_21_217" x1="59.8825" y1="0.967773" x2="59.8825" y2="96.9943" gradientUnits="userSpaceOnUse">
<stop stop-color="#9429BD"/>
<stop offset="0.296875" stop-color="#5814C5"/>
<stop offset="1" stop-color="#061042"/>
</linearGradient>
<linearGradient id="paint29_linear_21_217" x1="59.8825" y1="0.967773" x2="59.8825" y2="96.9943" gradientUnits="userSpaceOnUse">
<stop stop-color="#9429BD"/>
<stop offset="0.296875" stop-color="#5814C5"/>
<stop offset="1" stop-color="#061042"/>
</linearGradient>
<linearGradient id="paint30_linear_21_217" x1="59.8825" y1="0.967773" x2="59.8825" y2="96.9943" gradientUnits="userSpaceOnUse">
<stop stop-color="#9429BD"/>
<stop offset="0.296875" stop-color="#5814C5"/>
<stop offset="1" stop-color="#061042"/>
</linearGradient>
<linearGradient id="paint31_linear_21_217" x1="59.8825" y1="0.967773" x2="59.8825" y2="96.9943" gradientUnits="userSpaceOnUse">
<stop stop-color="#9429BD"/>
<stop offset="0.296875" stop-color="#5814C5"/>
<stop offset="1" stop-color="#061042"/>
</linearGradient>
<linearGradient id="paint32_linear_21_217" x1="59.8825" y1="0.967773" x2="59.8825" y2="96.9943" gradientUnits="userSpaceOnUse">
<stop stop-color="#9429BD"/>
<stop offset="0.296875" stop-color="#5814C5"/>
<stop offset="1" stop-color="#061042"/>
</linearGradient>
<linearGradient id="paint33_linear_21_217" x1="59.8825" y1="0.967773" x2="59.8825" y2="96.9943" gradientUnits="userSpaceOnUse">
<stop stop-color="#9429BD"/>
<stop offset="0.296875" stop-color="#5814C5"/>
<stop offset="1" stop-color="#061042"/>
</linearGradient>
<linearGradient id="paint34_linear_21_217" x1="59.8825" y1="0.967773" x2="59.8825" y2="96.9943" gradientUnits="userSpaceOnUse">
<stop stop-color="#9429BD"/>
<stop offset="0.296875" stop-color="#5814C5"/>
<stop offset="1" stop-color="#061042"/>
</linearGradient>
<linearGradient id="paint35_linear_21_217" x1="59.8825" y1="0.967773" x2="59.8825" y2="96.9943" gradientUnits="userSpaceOnUse">
<stop stop-color="#9429BD"/>
<stop offset="0.296875" stop-color="#5814C5"/>
<stop offset="1" stop-color="#061042"/>
</linearGradient>
<linearGradient id="paint36_linear_21_217" x1="59.8825" y1="0.967773" x2="59.8825" y2="96.9943" gradientUnits="userSpaceOnUse">
<stop stop-color="#9429BD"/>
<stop offset="0.296875" stop-color="#5814C5"/>
<stop offset="1" stop-color="#061042"/>
</linearGradient>
</defs>
</svg>
