<svg width="253" height="100" viewBox="0 0 253 100" fill="none" xmlns="http://www.w3.org/2000/svg">
<g opacity="0.6">
<path opacity="0.6" d="M3.03456 45.9941C3.03456 45.9941 -1.53486 42.8307 10.8846 34.1605C14.2837 31.8186 17.4367 29.1383 20.2953 26.1605C23.0627 23.215 25.2724 20.068 26.3503 16.9373C28.5647 10.5073 27.4048 6.04101 24.5929 0.0656128C24.5929 0.0656128 27.4048 11.7821 18.7346 20.5694C13.7832 25.5888 9.33099 29.1318 6.02929 31.9203C2.72759 34.7088 0.574105 36.7381 0.222611 38.7299C-0.480377 42.7135 3.03456 45.9941 3.03456 45.9941Z" fill="#636366"/>
<path opacity="0.6" d="M24.5929 0.0656148C24.2296 1.31459 24.3585 2.744 24.0609 4.02812C23.6298 5.96603 21.6637 10.6104 12.1734 16.3515C8.81312 18.3831 5.43175 20.6374 2.68307 23.4985C0.126537 26.1605 1.00996 29.7129 3.09314 32.3702C2.13005 28.4687 8.63034 24.4452 11.0018 23.0299C19.0135 18.2496 27.4962 11.3134 24.5929 0.0656148C24.4101 -0.642059 26.3199 4.6655 24.5929 0.0656148Z" fill="#636366"/>
<path opacity="0.6" d="M3.15172 18.7463C3.15172 18.7463 4.9209 15.5032 11.9391 13.0053C15.6298 11.6907 19.1142 10.0762 21.5161 7.9672C23.918 5.85823 25.2373 3.28061 24.5928 0.0656128C24.1828 1.47159 23.5923 2.9877 21.5841 4.57879C19.5759 6.16989 16.15 7.84066 10.0644 9.55595C2.40889 11.7165 -0.0117281 14.7112 3.15172 18.7463Z" fill="#636366"/>
</g>
<path d="M77.024 67.0182L74.0129 59.3322H59.0041L56.1546 67.0182H45.966L62.2355 27.8852H71.3275L87.4329 67.0182H77.024ZM66.6174 38.3316L61.6965 51.7587H71.447L66.6174 38.3316Z" fill="#636366"/>
<path d="M102.507 53.9707L118.61 27.8852H129.183V67.0182H119.871V41.2607H119.707L103.548 67.0182H93.0287V27.8852H102.341V53.9707H102.507Z" fill="#636366"/>
<path d="M167.965 39.9344C167.965 42.2199 167.545 44.1445 166.704 45.7083C165.903 47.2311 164.736 48.5313 163.309 49.4927C161.809 50.4869 160.142 51.2015 158.388 51.6016C156.481 52.0459 154.529 52.2653 152.572 52.2554H147.918V67.0182H138.545V27.8852H152.783C154.781 27.8725 156.775 28.0855 158.725 28.5202C160.452 28.8908 162.094 29.5857 163.562 30.5682C164.933 31.5109 166.045 32.7843 166.793 34.2707C167.574 35.7938 167.965 37.6817 167.965 39.9344ZM158.592 39.9906C158.624 39.199 158.434 38.4141 158.043 37.7247C157.683 37.1399 157.172 36.6624 156.565 36.3421C155.906 35.999 155.192 35.7745 154.456 35.679C153.648 35.5668 152.834 35.5112 152.019 35.5126H147.918V44.7405H151.862C152.706 44.7436 153.55 44.6699 154.381 44.5202C155.141 44.3888 155.873 44.1272 156.544 43.7469C157.164 43.3969 157.683 42.8924 158.05 42.2824C158.438 41.5826 158.628 40.7902 158.599 39.9906H158.592Z" fill="#636366"/>
<path d="M197.27 67.0182L182.863 48.9983H182.753V67.0182H173.615V27.8852H182.753V43.8008H182.917L196.778 27.8852H208.494L191.787 45.9004L209.49 67.0182H197.27Z" fill="#636366"/>
<path d="M252.213 47.2853C252.249 50.1901 251.709 53.0731 250.624 55.768C249.622 58.2364 248.121 60.471 246.214 62.3316C244.288 64.1799 242.004 65.6152 239.503 66.5495C234.065 68.5386 228.098 68.5386 222.66 66.5495C220.169 65.6106 217.896 64.1756 215.977 62.3316C214.071 60.4719 212.57 58.238 211.569 55.7704C210.484 53.0756 209.944 50.1924 209.98 47.2876C209.98 44.1633 210.51 41.3357 211.569 38.8049C212.566 36.3711 214.07 34.177 215.979 32.3679C217.909 30.5693 220.182 29.1785 222.662 28.2789C228.113 26.3632 234.054 26.3632 239.506 28.2789C241.996 29.174 244.279 30.5651 246.217 32.3679C248.125 34.1775 249.629 36.3715 250.627 38.8049C251.683 41.3263 252.212 44.1531 252.213 47.2853ZM242.189 47.2853C242.201 45.6648 241.923 44.0551 241.366 42.5331C240.863 41.1351 240.091 39.8494 239.093 38.7487C238.106 37.686 236.909 36.8395 235.578 36.2625C234.153 35.6431 232.612 35.3324 231.058 35.3509C228.807 35.3109 226.601 35.9845 224.756 37.275C222.911 38.5656 221.522 40.407 220.787 42.5354C220.249 44.0614 219.98 45.6695 219.993 47.2876C219.976 48.9536 220.254 50.6094 220.815 52.1781C221.317 53.5934 222.089 54.8978 223.088 56.0188C224.059 57.0905 225.244 57.9471 226.566 58.5331C227.987 59.1351 229.515 59.4453 231.058 59.4453C232.601 59.4453 234.129 59.1351 235.55 58.5331C236.881 57.9436 238.077 57.0879 239.065 56.0188C240.079 54.904 240.862 53.5984 241.366 52.1781C241.927 50.6086 242.206 48.952 242.189 47.2853V47.2853Z" fill="#636366"/>
<g opacity="0.6">
<path opacity="0.6" d="M31.0228 48.464C31.0885 51.6181 28.7522 54.7089 26.594 56.7124C23.3954 59.679 19.7774 61.8793 16.1921 64.3515C12.6772 66.7698 10.43 68.4429 6.89865 70.826C1.86057 74.2238 -0.951378 79.8875 0.571762 84.3398C1.95196 81.5278 4.89514 78.8752 7.13298 77.3872C11.5501 74.4511 15.5196 72.0188 19.8477 68.9514C23.0838 66.662 26.6175 64.5366 29.3966 61.6872C31.6274 59.3954 32.6444 56.9561 32.2648 53.7903C32.1079 52.4762 31.8732 51.1726 31.5618 49.8864C31.5196 49.7153 31.0182 47.9344 31.0299 48.4663C31.0369 49.1693 30.9924 47.0744 31.0228 48.464Z" fill="#636366"/>
<path opacity="0.6" d="M30.3316 36.1523C30.4487 43.7914 20.1336 48.4382 14.7487 52.1828C10.1792 55.3603 -0.717061 60.6327 0.220256 69.5372C1.15757 67.1939 4.86232 64.5577 7.28763 62.997C11.1072 60.5382 14.9268 58.0808 18.7463 55.6251C22.4651 53.2302 26.3175 50.9197 29.2607 47.5571C31.2525 45.2818 31.8383 43.4868 31.4048 40.5507C31.2698 39.3624 31.0394 38.187 30.7159 37.0357C30.6807 36.9279 30.3152 35.6298 30.3245 36.1382C30.3409 36.8061 30.3058 34.8307 30.3316 36.1523Z" fill="#636366"/>
<path opacity="0.6" d="M31.7118 62.6924C31.8032 66.7229 29.1599 69.1927 26.273 71.5969C22.6831 74.587 9.70825 83.461 6.19331 86.0387C2.49091 88.7545 -0.836565 94.7276 0.217917 100C2.67837 94.9619 13.0146 89.2208 19.9016 84.1289C23.1494 81.727 27.775 78.519 30.6807 75.693C33.1435 73.3052 33.727 70.9924 33.1834 67.6649C32.9819 66.355 32.6835 65.0618 32.2906 63.7961C32.246 63.6555 31.6883 62.0176 31.7 62.6854C31.7282 63.447 31.6813 61.1904 31.7118 62.6924Z" fill="#636366"/>
</g>
<path d="M0.747504 37.2583C-0.189813 39.679 -0.299947 42.6995 0.710012 45.1271C1.70357 47.5196 3.8055 48.6421 5.94258 49.7996C9.96367 51.9953 14.0785 54.0176 18.1277 56.1429C23.4423 58.9361 35.6813 66.109 32.3398 73.6333C34.3691 71.2337 33.9379 67.0228 33.4247 64.7944C32.1406 59.2056 28.2999 55.7469 23.4962 53.0006C18.5425 50.1746 13.3966 47.7657 8.20152 45.42C4.70064 43.8477 0.688922 41.6661 0.747504 37.2583Z" fill="#636366"/>
<path d="M1.52782 24.9279C0.590507 27.3486 0.480372 30.3691 1.49033 32.7967C2.48389 35.1892 4.58582 36.3117 6.7229 37.4692C10.744 39.6649 14.2917 40.6819 18.348 42.8143C23.6673 45.6075 34.901 51.3181 31.5571 58.8401C33.5864 56.4405 33.1552 52.2296 32.6421 50.0012C31.3579 44.4124 28.6186 42.3597 23.8149 39.6134C18.8541 36.7756 13.9426 34.9268 8.74048 32.5835C5.24897 31.0088 1.46924 29.324 1.52782 24.9279Z" fill="#636366"/>
<path d="M1.97774 14.1465C1.07089 16.6561 0.745168 17.9801 1.7106 20.3187C3.38606 24.3726 13.6872 27.7821 17.645 29.5231C22.8307 31.8055 33.3451 36.7873 31.2689 44.4148C33.0311 41.4856 32.7522 37.5817 32.0164 35.4704C30.2191 30.3152 27.4868 28.4851 22.8002 26.198C17.9613 23.8407 13.8254 22.4956 8.90451 20.3866C5.56298 18.9596 1.51377 17.3404 1.97774 14.1465Z" fill="#636366"/>
</svg>
