<svg width="205" height="101" viewBox="0 0 205 101" fill="none" xmlns="http://www.w3.org/2000/svg">
<path d="M9.73032 9.67199C9.73032 9.03379 9.56925 8.55545 9.09212 8.07711C8.77121 7.75741 8.29529 7.59877 7.6571 7.43892V18.7629C7.81574 18.7629 8.13544 18.603 8.29529 18.603C8.61378 18.4432 8.77121 18.2833 8.93227 18.1247C9.09212 17.9649 9.25197 17.805 9.41182 17.4865C9.56925 17.1668 9.56925 17.0082 9.56925 16.6885V9.67199H9.73032ZM4.78584 7.43892C4.14765 7.59877 3.6693 7.75741 3.19096 8.07711C2.87126 8.55545 2.71141 9.03379 2.71141 9.67199V16.6885C2.71141 17.0082 2.71141 17.3267 2.87126 17.6464C3.03232 17.9649 3.19096 18.1247 3.3496 18.2833C3.50945 18.4432 3.83037 18.603 3.98779 18.7629C4.3075 18.9215 4.46614 18.9215 4.78584 18.9215V7.43892ZM12.2819 16.37C12.2819 17.1668 12.1232 17.805 11.8035 18.4432C11.485 19.0814 11.1641 19.4011 10.687 19.8794C10.2087 20.1979 9.73032 20.5176 9.25197 20.8361C8.77121 20.996 8.13544 21.1546 7.49725 21.1546V22.5908H4.78584V21.1546C3.98779 20.996 3.19096 20.8361 2.55398 20.5176C1.91458 20.1979 1.43745 19.8794 1.11653 19.4011C0.798043 18.9215 0.480764 18.4432 0.319702 17.805C0.161062 17.1668 0 16.5298 0 15.7318V9.83184C0 9.03379 0.161062 8.3956 0.480763 7.75741C0.639403 7.27907 1.11653 6.80073 1.43745 6.48224C1.91458 6.00389 2.39292 5.84404 3.03232 5.52434C3.6693 5.20585 4.14765 5.20585 4.78584 5.20585V4.24917H7.6571V5.20585C8.29529 5.20585 8.77121 5.3657 9.41182 5.52434C9.89017 5.68419 10.3673 6.00389 10.8456 6.48224C11.3252 6.80073 11.6425 7.43892 11.9622 7.91726C12.2819 8.55545 12.4405 9.19364 12.4405 9.99048V16.37H12.2819Z" fill="#636366"/>
<path d="M23.6051 8.71508C23.6051 8.23674 23.4453 7.7584 23.2866 7.28006C23.1268 6.80051 22.6485 6.64187 22.0103 6.64187C21.693 6.64187 21.3733 6.64187 21.2122 6.8005C20.8949 7.12021 20.7339 7.28006 20.7339 7.59855C20.5764 7.7584 20.5764 8.07689 20.5764 8.39659V9.19342V18.4442C20.5764 18.9225 20.7339 19.4009 20.8949 19.7194C21.0536 20.0391 21.5319 20.3576 22.1713 20.3576C22.8071 20.3576 23.1268 20.1977 23.4453 19.7194C23.7662 19.4009 23.7662 18.9225 23.7662 18.2843V8.71508H23.6051ZM26.4764 17.806C26.4764 19.4009 26.1567 20.6773 25.3599 21.4741C24.5618 22.2721 23.4453 22.7505 22.0103 22.7505C20.4166 22.7505 19.3001 22.4308 18.6607 21.6339C18.0237 20.8359 17.5453 19.7194 17.5453 18.2843V9.03357C17.5453 8.39659 17.7052 7.59855 17.8626 7.12021C18.0237 6.48201 18.3434 6.00367 18.6607 5.52533C18.9791 5.04699 19.4575 4.72729 20.0969 4.56744C20.7339 4.4088 21.3733 4.24895 22.1713 4.24895C22.9682 4.24895 23.7662 4.4088 24.2433 4.56744C24.7217 4.56744 25.2 4.88714 25.5197 5.36548C25.8382 5.84382 26.1567 6.32216 26.3165 6.96036C26.4764 7.59855 26.4764 8.23674 26.4764 9.03357V17.806Z" fill="#636366"/>
<path d="M37.9598 22.5905V14.6161H34.6102V22.5905H31.8988V4.25005H34.7701V11.9047H38.1197V4.25005H40.9885V22.5905H37.9598Z" fill="#636366"/>
<path d="M50.2396 15.4133C50.2396 16.5298 50.0797 17.3279 50.0797 18.1247C49.9211 18.9228 49.7612 19.5609 49.4415 20.0393H53.4293V6.96058H50.5581L50.2396 15.4133ZM47.688 22.5896V26.0991H45.2951V20.1991L46.4129 20.0393C46.89 19.5609 47.2109 18.9228 47.3683 18.2846C47.5294 17.6464 47.688 16.6897 47.688 15.5732L48.0077 4.40903H56.3006V20.1991H57.4171V26.2589H55.0242V22.7495H47.688V22.5896Z" fill="#636366"/>
<path d="M74.6416 4.08992C75.4397 4.08992 76.0754 4.24977 76.5562 4.40841C77.0346 4.56826 77.5129 4.88796 77.9912 5.20645C78.3109 5.52494 78.6294 6.0045 78.7893 6.48284C78.9467 6.96118 79.1078 7.59937 79.1078 8.23756L76.3964 8.87576C76.3964 8.23756 76.2365 7.59937 76.0754 7.27967C75.7582 6.80133 75.4397 6.64148 74.8015 6.64148C74.4818 6.64148 74.1633 6.64148 74.0034 6.80133C73.8436 6.96118 73.685 7.12103 73.5251 7.27967C73.3652 7.43952 73.3652 7.75801 73.3652 7.91786V8.71591V17.9655V18.6036C73.3652 18.7635 73.5251 19.082 73.5251 19.2418L74.0034 19.7202C74.1633 19.88 74.4818 19.88 74.8015 19.88C75.918 19.88 76.3964 19.082 76.3964 17.647C76.8735 17.8056 77.3518 17.8056 77.8314 17.8056C78.3109 17.8056 78.7893 17.9655 79.2676 17.9655C79.2676 19.4017 78.7893 20.5182 78.1499 21.3151C77.3518 22.1119 76.3964 22.5902 74.9601 22.5902C73.3652 22.5902 72.2487 22.2705 71.6129 21.4749C70.8149 20.6769 70.494 19.5603 70.494 18.1253V9.0344C70.494 8.3962 70.494 7.75801 70.6538 7.12103C70.8149 6.48284 71.1346 6.0045 71.4519 5.52494C71.7704 5.0466 72.2487 4.72811 72.8869 4.40841C73.0468 4.24977 73.685 4.08992 74.6416 4.08992Z" fill="#636366"/>
<path d="M89.6334 8.71508C89.6334 8.23674 89.4735 7.7584 89.3149 7.28006C89.155 6.80051 88.6767 6.64187 88.0385 6.64187C87.7188 6.64187 87.4015 6.64187 87.2405 6.8005C87.0818 6.96036 86.922 7.12021 86.7621 7.28006C86.6047 7.4387 86.6047 7.7584 86.4436 8.07689V8.87493V18.1245C86.4436 18.6028 86.6047 19.0812 86.7621 19.4009C87.0818 19.7194 87.4015 20.0391 88.0385 20.0391C88.6767 20.0391 88.9952 19.8792 89.3149 19.4009C89.6334 19.0812 89.6334 18.6028 89.6334 17.9646V8.71508ZM92.5046 17.806C92.5046 19.4009 92.1849 20.6773 91.3881 21.4741C90.5901 22.2721 89.4735 22.7505 88.0385 22.7505C86.4436 22.7505 85.3283 22.4308 84.6889 21.6339C84.0519 20.8359 83.5724 19.7194 83.5724 18.2843V9.03357C83.5724 8.39659 83.7334 7.59855 83.8909 7.12021C84.0519 6.48201 84.3692 6.00367 84.6889 5.52533C85.0086 5.04699 85.4857 4.72729 86.1251 4.56744C86.7621 4.4088 87.4015 4.24895 88.1996 4.24895C88.9952 4.24895 89.7932 4.4088 90.2716 4.56744C90.9098 4.72729 91.2283 5.04699 91.7066 5.52533C92.0263 6.00367 92.3448 6.48201 92.5046 7.12021V8.87493V17.806Z" fill="#636366"/>
<path d="M101.754 15.4133C101.754 16.5298 101.594 17.3279 101.594 18.1247C101.436 18.9228 101.276 19.5609 100.956 20.0393H104.944V6.96058H102.073L101.754 15.4133ZM99.2027 22.5896V26.0991H96.8098V20.1991L97.9263 20.0393C98.4046 19.5609 98.7231 18.9228 98.883 18.2846C99.044 17.6464 99.2027 16.6897 99.2027 15.5732L99.5224 4.40903H107.815V20.1991H108.931V26.2589H106.539V22.7495H99.2027V22.5896Z" fill="#636366"/>
<path d="M113.557 22.5905V4.25005H121.69V6.96025H116.427V11.9047H121.052V14.6161H116.427V19.8791H121.69V22.5905H113.557Z" fill="#636366"/>
<path d="M129.506 0.102629C129.506 0.26248 129.506 0.42112 129.665 0.740822C129.824 0.900673 129.824 1.05931 129.984 1.37901C130.143 1.53765 130.304 1.6975 130.462 1.85735C130.622 2.01721 130.939 2.01721 131.1 2.01721C131.42 2.01721 131.579 2.01721 131.737 1.85735C131.899 1.6975 132.057 1.53765 132.216 1.37901C132.377 1.21916 132.537 1.05931 132.537 0.740822C132.537 0.580971 132.695 0.42112 132.695 0.102629H134.77C134.77 0.42112 134.609 0.900673 134.45 1.37901C134.609 1.69751 134.289 2.17585 133.972 2.49555C133.653 2.81404 133.334 3.13374 132.855 3.45223C132.377 3.61208 131.899 3.77072 131.26 3.77072C130.622 3.77072 129.984 3.61208 129.506 3.45223C129.027 3.29238 128.708 2.97389 128.389 2.49555C128.072 2.17585 127.911 1.69751 127.751 1.37901C127.591 0.900673 127.432 0.42112 127.432 0.102629H129.506ZM133.014 11.1069L129.187 22.5907H126.477V4.25027H129.187V15.8927L133.014 4.25027H135.726V22.5907H132.855L133.014 11.1069Z" fill="#636366"/>
<path d="M145.614 4.08992C146.412 4.08992 147.048 4.24977 147.526 4.40841C148.006 4.56826 148.485 4.88796 148.964 5.20645C149.284 5.52494 149.601 6.0045 149.762 6.48284C149.919 6.96118 150.079 7.59937 150.079 8.23756L147.369 8.87576C147.369 8.23756 147.209 7.59937 147.048 7.27967C146.73 6.80133 146.412 6.64148 145.774 6.64148C145.453 6.64148 145.136 6.64148 144.976 6.80133C144.816 6.96118 144.655 7.12103 144.498 7.27967C144.338 7.43952 144.338 7.75801 144.338 7.91786V8.71591V17.9655V18.6036C144.338 18.7635 144.498 19.082 144.498 19.2418C144.655 19.4017 144.816 19.5603 144.976 19.7202C145.136 19.88 145.453 19.88 145.774 19.88C146.891 19.88 147.369 19.082 147.369 17.647C147.846 17.8056 148.324 17.8056 148.803 17.8056C149.284 17.8056 149.762 17.9655 150.24 17.9655C150.24 19.4017 149.762 20.5182 149.122 21.3151C148.324 22.1119 147.369 22.5902 145.932 22.5902C144.338 22.5902 143.221 22.2705 142.583 21.4749C141.787 20.6769 141.467 19.5603 141.467 18.1253V9.0344C141.467 8.3962 141.467 7.75801 141.626 7.12103C141.787 6.48284 142.105 6.0045 142.424 5.52494C142.743 5.0466 143.221 4.72811 143.858 4.40841C144.019 4.24977 144.816 4.08992 145.614 4.08992Z" fill="#636366"/>
<path d="M159.33 6.96058V22.5908H156.459V6.96058H153.43V4.24917H162.202V6.96058H159.33Z" fill="#636366"/>
<path d="M172.727 16.6894C172.727 15.8914 172.567 15.2544 172.249 14.7749C171.929 14.2965 171.451 14.1379 170.654 14.1379H169.537V19.8792H170.654C171.132 19.8792 171.451 19.7206 171.77 19.5607C172.089 19.4009 172.249 19.241 172.408 18.9225C172.567 18.604 172.727 18.2843 172.727 17.9658V16.6894ZM172.567 9.35326C172.567 8.55643 172.408 7.91824 172.089 7.59854C171.77 7.28005 171.132 7.1202 170.495 7.1202H169.537V11.9036H170.495C171.292 11.9036 171.77 11.745 172.089 11.2666C172.408 10.6296 172.567 9.99146 172.567 9.35326V9.35326ZM173.364 13.0214C174.161 13.3398 174.8 13.8182 174.959 14.4564C175.278 15.2544 175.437 16.0513 175.437 17.0079C175.437 18.9225 174.959 20.3575 174.161 21.1556C173.364 22.1123 172.089 22.432 170.334 22.432H166.506V4.24894H170.495C172.089 4.24894 173.364 4.72728 174.003 5.52532C174.8 6.32336 175.12 7.59854 175.12 9.19462C175.12 9.99146 174.959 10.7895 174.641 11.4253C174.641 12.0635 174.003 12.5418 173.364 13.0214Z" fill="#636366"/>
<path d="M187.399 11.1071L183.572 22.5898H180.861V4.2493H183.572V15.893H183.731L187.56 4.2493H190.27V22.5898H187.399V11.1071Z" fill="#636366"/>
<path d="M200.637 6.9606C199.839 6.9606 199.203 7.27909 198.882 7.75864C198.564 8.23699 198.405 8.87518 198.405 9.83186C198.405 10.7885 198.564 11.2669 199.042 11.7464C199.52 12.0649 200 12.2248 200.637 12.2248H201.753V6.9606H200.637ZM195.055 22.5909L196.012 16.8483C196.171 16.2102 196.332 15.7318 196.649 15.2535C196.969 14.7751 197.287 14.2968 197.766 14.1369C196.969 13.8184 196.332 13.1803 196.012 12.5421C195.692 11.9051 195.534 10.9484 195.534 9.99171C195.534 8.23699 196.012 6.80075 196.81 5.84407C197.608 4.88738 198.882 4.40904 200.477 4.40904H204.625V22.7507H201.753V14.7751H200.955C200.477 14.7751 200 14.935 199.52 15.4133C199.042 15.7318 198.882 16.5299 198.564 17.4865L197.766 22.5909H195.055Z" fill="#636366"/>
<path d="M8.61353 37.7419L3.83012 51.9372H0.480515V29.2892H3.98755V43.6419H4.1474L8.93202 29.2892H12.4403V51.9372H8.77338L8.61353 37.7419Z" fill="#636366"/>
<path d="M29.5061 51.9362V42.0485H25.5195V51.9362H22.01V29.2895H25.5195V38.6989H29.6671V29.2895H33.1742V51.9362H29.5061Z" fill="#636366"/>
<path d="M50.5589 51.9362V42.0485H46.4112V51.9362H42.9042V29.2895H46.4112V38.6989H50.5589V29.2895H54.0671V51.9362H50.5589Z" fill="#636366"/>
<path d="M71.2926 34.8709C71.2926 34.2327 71.1328 33.7544 70.8143 33.1162C70.4946 32.6378 70.0162 32.3194 69.2194 32.3194C68.7411 32.3194 68.4214 32.478 68.2639 32.6378C67.943 32.7977 67.7832 33.1162 67.6245 33.276C67.4659 33.5945 67.3048 33.9142 67.3048 34.2327C67.3048 34.5524 67.145 34.8709 67.145 35.1894V46.6732C67.145 47.3114 67.3048 47.7898 67.6245 48.2681C67.943 48.7464 68.4214 48.9063 69.2194 48.9063C70.0162 48.9063 70.4946 48.5866 70.8143 48.1083C71.1328 47.6299 71.2926 46.9917 71.2926 46.3535V34.8709ZM74.8009 46.1949C74.8009 48.1083 74.3213 49.7031 73.5245 50.661C72.569 51.6177 71.2926 52.0961 69.2194 52.0961C67.3048 52.0961 65.8698 51.6177 65.0718 50.661C64.2737 49.7031 63.7978 48.2681 63.7978 46.5134V35.1894C63.7978 34.2327 63.9552 33.4359 64.1163 32.7977C64.2737 31.9996 64.5946 31.3615 65.0718 30.8831C65.5501 30.4048 66.0284 29.9264 66.8265 29.6092C67.4659 29.2894 68.4214 29.1296 69.378 29.1296C70.4946 29.1296 71.2926 29.2894 72.0907 29.6092C72.7264 29.9264 73.3658 30.2449 73.8442 30.7233C74.3213 31.2028 74.6422 31.8398 74.8009 32.6378C74.9607 33.4359 75.1193 34.2327 75.1193 35.1894V46.1949H74.8009Z" fill="#636366"/>
<path d="M92.0261 44.7593C92.0261 43.6427 91.865 42.8447 91.3879 42.3663C91.067 41.888 90.2714 41.5695 89.3147 41.5695H88.0383V48.5872H89.4745C90.1115 48.5872 90.4312 48.4274 90.9096 48.2687C91.2281 48.1089 91.5478 47.7904 91.7076 47.4707C91.865 47.1522 92.0261 46.6738 92.0261 46.1943V44.7593ZM91.865 35.5097C91.865 34.3932 91.7076 33.755 91.2281 33.2766C90.7497 32.7971 90.1115 32.6384 89.1548 32.6384H88.0383V38.381H89.1548C90.1115 38.381 90.7497 38.0613 91.2281 37.5829C91.7076 37.2644 91.865 36.4664 91.865 35.5097ZM92.8241 40.1333C93.7808 40.4542 94.5777 41.0912 94.8974 42.0478C95.2146 43.0045 95.5343 43.9612 95.5343 45.2376C95.5343 47.6305 95.0548 49.3852 93.9383 50.5018C92.9828 51.6171 91.3879 52.0954 89.3147 52.0954H84.5313V29.2888H89.4745C91.5478 29.2888 92.9828 29.7672 93.7808 30.8837C94.7363 32.0003 95.2146 33.4353 95.2146 35.5097C95.2146 36.6262 95.0548 37.4231 94.7363 38.2211C94.419 39.0179 93.7808 39.6561 92.8241 39.9734V40.1333Z" fill="#636366"/>
<path d="M110.208 34.5521C110.047 36.1469 109.729 37.7418 109.57 39.178C109.249 40.7717 109.092 42.3666 108.773 43.9615H111.963L110.525 34.5521H110.208ZM113.397 51.9358L112.44 47.1512H108.293C108.135 47.9493 107.975 48.7473 107.815 49.5441C107.654 50.3422 107.497 51.139 107.337 51.9358H103.669C104.466 48.1091 105.264 44.2812 105.902 40.6131C106.699 36.7851 107.497 33.117 108.135 29.2879H112.12L116.746 51.9358H113.397Z" fill="#636366"/>
<path d="M136.523 29.289V48.7459H137.957V56.4018H134.929V52.0956H125.359V29.289H128.868V48.7459H132.855V29.289H136.523Z" fill="#636366"/>
<path d="M154.545 37.7419L149.762 51.9372H146.412V29.2892H149.92V43.6419L154.706 29.2892H158.214V51.9372H154.706L154.545 37.7419Z" fill="#636366"/>
<path d="M174.003 32.6382C172.886 32.6382 172.248 32.9567 171.771 33.5949C171.291 34.233 171.131 35.0311 171.131 36.1476C171.131 37.2642 171.451 38.061 171.929 38.3807C172.408 38.8578 173.205 39.0165 174.003 39.0165H175.436V32.6382H174.003ZM166.984 51.9353L168.26 44.759C168.421 43.9622 168.58 43.324 169.058 42.6858C169.378 42.0476 169.855 41.5692 170.494 41.2495C169.378 40.7712 168.738 40.133 168.26 39.3362C167.942 38.3807 167.624 37.424 167.624 36.1476C167.624 33.9146 168.103 32.1598 169.218 31.0433C170.334 29.9268 171.771 29.2886 173.684 29.2886H178.947V51.9353H175.436V42.2074H174.481C173.843 42.2074 173.364 42.3673 172.726 42.8456C172.248 43.324 171.771 44.1208 171.61 45.3972L170.494 51.7767H166.984V51.9353Z" fill="#636366"/>
<path d="M195.373 46.9921L193.78 42.8445L192.345 38.8591H192.185V51.9366H188.675V29.2898H192.185L194.736 35.6681L196.49 40.6138H196.65L198.563 35.5095L200.956 29.13H204.306V51.778H200.795V38.6992H200.638L199.203 42.6858L197.606 46.8323H195.373V46.9921Z" fill="#636366"/>
<path d="M204.464 58.7942C155.184 106.96 56.6192 98.6673 20.8937 58.7942H0.480072C27.4331 87.3433 66.1885 98.1877 98.7242 99.624C102.074 99.7838 105.423 99.7838 108.613 99.7838C129.664 99.4641 153.11 94.8381 173.525 83.9937C185.167 77.9327 195.852 69.6398 204.464 58.7942Z" fill="#E02233"/>
<path d="M204.464 58.7942C204.464 58.9541 204.464 58.9541 204.464 58.7942C203.666 59.4324 202.869 59.9107 202.232 60.3891C148.484 96.2744 73.8432 89.2555 41.7871 58.7942H20.8938C56.6193 98.6673 155.184 107.119 204.464 58.7942Z" fill="#44A4D4"/>
<path d="M192.663 63.898C168.262 73.3074 145.295 77.455 125.2 77.6137C97.1292 77.7735 74.9607 70.2763 63.1572 58.7937H45.4562H41.7881C73.6844 88.9377 147.527 96.114 201.116 61.0267C201.434 60.8669 201.913 60.5484 202.232 60.2299C203.029 59.7503 203.667 59.272 204.465 58.7937C200.479 60.7082 196.49 62.3031 192.663 63.898Z" fill="white"/>
<path d="M63.158 58.6347H45.4557H41.7864H20.8944H0.480682C0.320831 58.6347 0.320831 58.6347 0.16098 58.7945V59.113C12.9188 72.3503 28.7089 82.7176 47.3678 89.7341C62.9981 95.6365 80.8614 99.1447 98.5661 99.9428C101.118 100.103 103.509 100.103 106.061 100.103H108.453C119.617 99.9428 130.622 98.6664 141.148 96.1148C152.791 93.4034 163.636 89.4156 173.364 84.3125C185.805 77.6133 196.331 69.1606 204.464 58.9531V58.7945V58.6347V58.4748H204.306H204.146C200.317 60.2295 196.331 61.9843 192.343 63.4205C169.697 72.1917 146.412 76.9763 125.04 77.135H123.924C97.607 77.135 75.5985 70.2771 63.319 58.4748C63.319 58.6347 63.319 58.6347 63.158 58.6347ZM63.158 58.7945C74.8004 69.9586 96.4917 77.4535 124.083 77.4535H125.199C145.295 77.2936 168.26 73.1484 192.664 63.739C196.491 62.1441 200.478 60.5492 204.464 58.7945C195.854 69.4803 185.167 77.7732 173.364 83.994C152.949 94.8385 129.506 99.4644 108.453 99.7829H106.061C103.668 99.7829 101.118 99.7829 98.5661 99.6243C66.0292 98.1881 27.4325 87.3436 0.320831 58.7945H20.5747H41.4679H45.136H63.158" fill="#C4C6C0"/>
</svg>
