<svg width="53" height="52" viewBox="0 0 53 52" fill="none" xmlns="http://www.w3.org/2000/svg">
<path d="M7.43164 46.793H15.6836V49.1289C15.6836 50.4238 16.5977 51.3379 17.8926 51.3379C19.1875 51.3379 20.1016 50.4238 20.1016 49.1289V46.793H24.1641V49.1289C24.1641 50.4238 25.0781 51.3379 26.373 51.3379C27.668 51.3379 28.582 50.4238 28.582 49.1289V46.793H32.6699V49.1289C32.6699 50.4238 33.584 51.3379 34.8789 51.3379C36.1738 51.3379 37.0879 50.4238 37.0879 49.1289V46.793H45.2891C46.584 46.793 47.4473 45.9297 47.4473 44.6348V36.332H49.8086C51.1035 36.332 52.0176 35.418 52.0176 34.123C52.0176 32.8281 51.1035 31.9141 49.8086 31.9141H47.4473V27.877H49.8086C51.1035 27.877 52.0176 26.9629 52.0176 25.668C52.0176 24.373 51.1035 23.459 49.8086 23.459H47.4473V19.3965H49.8086C51.1035 19.3965 52.0176 18.4824 52.0176 17.1875C52.0176 15.8926 51.1035 14.9785 49.8086 14.9785H47.4473V6.77734C47.4473 5.48242 46.584 4.59375 45.2891 4.59375H37.0371V2.25781C37.0371 0.962891 36.123 0.0488281 34.8281 0.0488281C33.5332 0.0488281 32.6191 0.962891 32.6191 2.25781V4.59375H28.582V2.25781C28.582 0.962891 27.668 0.0488281 26.373 0.0488281C25.0781 0.0488281 24.1641 0.962891 24.1641 2.25781V4.59375H20.1016V2.25781C20.1016 0.962891 19.1875 0.0488281 17.8926 0.0488281C16.5977 0.0488281 15.6836 0.962891 15.6836 2.25781V4.59375H7.43164C6.13672 4.59375 5.27344 5.48242 5.27344 6.77734V15.0039H2.68359C1.38867 15.0039 0.474609 15.918 0.474609 17.2129C0.474609 18.5078 1.38867 19.4219 2.68359 19.4219H5.27344V23.4844H2.68359C1.38867 23.4844 0.474609 24.3984 0.474609 25.6934C0.474609 26.9883 1.38867 27.9023 2.68359 27.9023H5.27344V31.9395H2.68359C1.38867 31.9395 0.474609 32.8535 0.474609 34.1484C0.474609 35.4434 1.38867 36.3574 2.68359 36.3574H5.27344V44.6348C5.27344 45.9297 6.13672 46.793 7.43164 46.793ZM10.9609 41.8164C10.4531 41.8164 10.25 41.6133 10.25 41.1055V10.3066C10.25 9.77344 10.4531 9.57031 10.9609 9.57031H41.7598C42.2676 9.57031 42.4961 9.77344 42.4961 10.3066V41.1055C42.4961 41.6133 42.2676 41.8164 41.7598 41.8164H10.9609ZM17.207 36.7637H35.5137C36.7832 36.7637 37.418 36.1289 37.418 34.834V16.5527C37.418 15.2832 36.7832 14.6484 35.5137 14.6484H17.207C15.9375 14.6484 15.3027 15.2832 15.3027 16.5527V34.834C15.3027 36.1289 15.9375 36.7637 17.207 36.7637ZM19.5938 33.0312C19.2383 33.0312 19.0098 32.8027 19.0098 32.4473V18.9395C19.0098 18.584 19.2383 18.3555 19.5938 18.3555H33.127C33.4824 18.3555 33.7109 18.584 33.7109 18.9395V32.4473C33.7109 32.8027 33.4824 33.0312 33.127 33.0312H19.5938Z" fill="url(#paint0_linear_3_16)"/>
<defs>
<linearGradient id="paint0_linear_3_16" x1="26.2461" y1="0.0488281" x2="26.2461" y2="51.3379" gradientUnits="userSpaceOnUse">
<stop stop-color="#9428BD"/>
<stop offset="0.494792" stop-color="#5713C4"/>
<stop offset="1"/>
</linearGradient>
</defs>
</svg>
