<svg width="137" height="137" viewBox="0 0 137 137" fill="none" xmlns="http://www.w3.org/2000/svg">
<path d="M4.43783 43.8056C7.30094 43.8056 8.87565 42.1594 8.87565 39.2962V21.4018C8.87565 13.0987 13.2419 8.87565 21.2586 8.87565H39.4394C42.3741 8.87565 43.9488 7.22936 43.9488 4.43783C43.9488 1.57471 42.3741 0 39.4394 0H21.1155C7.15778 0 0 7.08621 0 20.9007V39.2962C0 42.1594 1.57471 43.8056 4.43783 43.8056ZM132.562 43.8056C135.425 43.8056 137 42.1594 137 39.2962V20.9007C137 7.15779 129.842 0 115.885 0H97.489C94.6259 0 92.9796 1.57471 92.9796 4.43783C92.9796 7.22936 94.6259 8.87565 97.489 8.87565H115.67C123.615 8.87565 128.124 13.0987 128.124 21.4018V39.2962C128.124 42.1594 129.699 43.8056 132.562 43.8056ZM21.1155 137H39.4394C42.3741 137 43.9488 135.354 43.9488 132.562C43.9488 129.699 42.3741 128.124 39.4394 128.124H21.2586C13.2419 128.124 8.87565 123.83 8.87565 115.598V97.7038C8.87565 94.8407 7.30094 93.1944 4.43783 93.1944C1.50313 93.1944 0 94.8407 0 97.7038V116.028C0 129.914 7.15778 137 21.1155 137ZM97.489 137H115.885C129.842 137 137 129.842 137 116.028V97.7038C137 94.8407 135.354 93.1944 132.562 93.1944C129.627 93.1944 128.124 94.8407 128.124 97.7038V115.598C128.124 123.83 123.615 128.124 115.67 128.124H97.489C94.6259 128.124 92.9796 129.699 92.9796 132.562C92.9796 135.354 94.6259 137 97.489 137Z" fill="url(#paint0_linear_29_214)"/>
<path d="M46.9556 112.613H90.1886C98.7064 112.613 103.216 108.032 103.216 99.5146V61.5068C103.216 56.7111 102.428 54.4922 99.6369 51.7006L75.8015 27.5789C73.1531 24.9305 70.7194 24 66.3532 24H46.9556C38.5094 24 34 28.581 34 37.0272V99.5146C34 108.032 38.4378 112.613 46.9556 112.613ZM47.1703 105.312C43.0904 105.312 41.1578 103.38 41.1578 99.4431V37.1703C41.1578 33.2335 43.162 31.3009 47.2419 31.3009H64.9932V54.5637C64.9932 59.6458 67.7847 62.4373 72.9383 62.4373H95.9864V99.4431C95.9864 103.38 94.0538 105.312 89.9023 105.312H47.1703ZM73.6541 55.4227C72.4373 55.4227 72.0078 55.0648 72.0078 53.848V33.8777L93.338 55.4227H73.6541Z" fill="url(#paint1_linear_29_214)"/>
<defs>
<linearGradient id="paint0_linear_29_214" x1="68.5" y1="0" x2="68.5" y2="137" gradientUnits="userSpaceOnUse">
<stop stop-color="#666666"/>
<stop offset="1" stop-color="#3A3A3A"/>
</linearGradient>
<linearGradient id="paint1_linear_29_214" x1="68.6079" y1="24" x2="68.6079" y2="112.613" gradientUnits="userSpaceOnUse">
<stop stop-color="#68AFE6"/>
<stop offset="1" stop-color="#5856D6"/>
</linearGradient>
</defs>
</svg>
