<svg width="20" height="14" viewBox="0 0 20 14" fill="none" xmlns="http://www.w3.org/2000/svg">
<path d="M3.29688 13.8672H16.9844C18.5156 13.8672 19.2891 13.0938 19.2891 11.5859V7.32031C19.2891 6.71875 19.1953 6.44531 18.9141 6.0625L15.9766 2.16406C15.2188 1.14062 14.7812 0.875 13.5312 0.875H6.75C5.5 0.875 5.0625 1.14062 4.30469 2.16406L1.36719 6.0625C1.08594 6.44531 0.992188 6.71875 0.992188 7.32031V11.5859C0.992188 13.1016 1.77344 13.8672 3.29688 13.8672ZM10.1406 9.53906C8.9375 9.53906 8.11719 8.54688 8.11719 7.46875V7.42969C8.11719 7.13281 7.94531 6.875 7.59375 6.875H2.29688C2.09375 6.875 2.04688 6.70312 2.14844 6.5625L5.25 2.40625C5.61719 1.91406 6.05469 1.72656 6.66406 1.72656H13.6172C14.2266 1.72656 14.6641 1.91406 15.0312 2.40625L18.1328 6.5625C18.2344 6.70312 18.1875 6.875 17.9844 6.875H12.6875C12.3359 6.875 12.1641 7.13281 12.1641 7.42969V7.46875C12.1641 8.54688 11.3438 9.53906 10.1406 9.53906ZM13.5156 2.98438H6.77344C6.59375 2.98438 6.46094 3.11719 6.46094 3.29688C6.46094 3.48438 6.59375 3.61719 6.77344 3.61719H13.5156C13.6953 3.61719 13.8281 3.48438 13.8281 3.29688C13.8281 3.11719 13.6953 2.98438 13.5156 2.98438ZM14.6484 4.82031H5.64062C5.45312 4.82031 5.3125 4.97656 5.3125 5.15625C5.3125 5.33594 5.45312 5.47656 5.64062 5.47656H14.6484C14.8359 5.47656 14.9766 5.33594 14.9766 5.15625C14.9766 4.97656 14.8359 4.82031 14.6484 4.82031Z" fill="#5856D6" fill-opacity="0.15"/>
</svg>
