<svg width="36" height="36" viewBox="0 0 36 36" fill="none" xmlns="http://www.w3.org/2000/svg">
<path fill-rule="evenodd" clip-rule="evenodd" d="M12.1072 33.4282C8.6077 33.4282 6.59574 33.4282 4.58379 31.4162C2.57183 29.4043 2.57183 27.3923 2.57183 23.8928V12.1072C2.57183 8.60771 2.57183 6.59575 4.58379 4.58379C6.59574 2.57184 8.6077 2.57184 12.1072 2.57184H23.8928C27.3923 2.57184 29.4043 2.57184 31.4162 4.58379C33.4282 6.59575 33.4282 8.60771 33.4282 12.1072V23.8928C33.4282 27.3923 33.4282 29.4043 31.4162 31.4162C29.4043 33.4282 27.3923 33.4282 23.8928 33.4282H12.1072Z" fill="#5856D6"/>
<path fill-rule="evenodd" clip-rule="evenodd" d="M11.7698 35.9998C8.54966 36.0031 5.53737 36.0063 2.76556 33.2344C-0.00626008 30.4626 -0.00312194 27.4503 0.000232481 24.2302C0.000349452 24.118 0.00046667 24.0056 0.00046667 23.8928V12.1072C0.00046667 11.9944 0.000349452 11.882 0.000232481 11.7698C-0.00312194 8.54966 -0.00626008 5.53737 2.76556 2.76556C5.53737 -0.00626008 8.54966 -0.00312194 11.7698 0.000232481C11.882 0.000349452 11.9944 0.00046667 12.1072 0.00046667H23.8928C24.0056 0.00046667 24.118 0.000349452 24.2302 0.000232481C27.4503 -0.00312194 30.4626 -0.00626008 33.2344 2.76556C36.0063 5.53737 36.0031 8.54965 35.9998 11.7698C35.9997 11.882 35.9995 11.9944 35.9995 12.1072V23.8928C35.9995 24.0056 35.9997 24.118 35.9998 24.2302C36.0031 27.4503 36.0063 30.4626 33.2344 33.2344C30.4626 36.0063 27.4503 36.0031 24.2302 35.9998C24.118 35.9997 24.0056 35.9995 23.8928 35.9995H12.1072C11.9944 35.9995 11.882 35.9997 11.7698 35.9998ZM4.58378 31.4162C6.59574 33.4282 8.6077 33.4282 12.1072 33.4282H23.8928C27.3923 33.4282 29.4043 33.4282 31.4162 31.4162C33.4282 29.4043 33.4282 27.3923 33.4282 23.8928V12.1072C33.4282 8.6077 33.4282 6.59574 31.4162 4.58378C29.4043 2.57183 27.3923 2.57183 23.8928 2.57183H12.1072C8.6077 2.57183 6.59574 2.57183 4.58378 4.58378C2.57183 6.59574 2.57183 8.6077 2.57183 12.1072V23.8928C2.57183 27.3923 2.57183 29.4043 4.58378 31.4162Z" fill="#68AFE6"/>
<path d="M28.6492 23.4928C28.3165 23.4341 27.9994 23.6573 27.9412 23.9911C27.8095 24.7467 27.0482 25.3372 26.5665 25.5544C26.565 25.4914 26.5652 25.4279 26.5648 25.3775C26.5649 25.1549 26.5642 24.9251 26.5061 24.7183C26.4577 24.544 26.3347 24.4004 26.1709 24.3253C26.0069 24.2501 25.8182 24.2516 25.6551 24.3284C25.226 24.5319 24.9803 24.9682 24.7639 25.3539C24.7134 25.4437 24.6441 25.5677 24.5782 25.6696C24.549 25.5024 24.5323 25.2909 24.5222 25.1648C24.5086 24.9884 24.4943 24.8268 24.471 24.703C24.4304 24.4848 24.2752 24.3057 24.0658 24.2344C23.8564 24.1634 23.6248 24.2105 23.4603 24.3586C23.2197 24.5752 22.961 24.8837 22.6612 25.2406C22.1561 25.8418 21.2166 26.9601 20.7188 26.8902C20.6051 26.8741 20.4795 26.766 20.3542 26.5817C21.233 25.7196 22.0857 24.1741 22.0026 23.0306C21.9625 22.4782 21.7188 22.0372 21.2984 21.7558C21.2107 21.6966 21.1085 21.6614 21.0034 21.6539C20.3726 21.6071 19.8078 21.8928 19.4134 22.4574C18.7196 23.4496 18.6302 25.1942 18.874 26.2347C17.9657 26.9447 17.0559 27.4335 17.0449 27.4391C16.7464 27.5977 16.6331 27.9697 16.7924 28.2692C16.9507 28.5689 17.3213 28.6832 17.6197 28.5237C17.6649 28.4996 18.5006 28.0521 19.4125 27.3685C19.7317 27.7971 20.112 28.0442 20.5484 28.1059C20.6915 28.1266 20.8326 28.1257 20.9718 28.1068C21.9041 27.9801 22.7457 27.0418 23.4526 26.2046C23.5281 26.4358 23.6455 26.6483 23.8355 26.8099C24.0496 26.9919 24.3177 27.0747 24.6116 27.0492C25.036 27.0101 25.3205 26.7448 25.5401 26.4342C25.5907 26.5144 25.6541 26.589 25.734 26.6552C25.8866 26.7826 26.1528 26.9186 26.5518 26.844C27.2971 26.7055 28.8756 25.7607 29.1467 24.2036C29.2054 23.8698 28.9824 23.5512 28.6492 23.4928ZM19.9717 25.1442C19.9634 24.4422 20.098 23.6189 20.4162 23.1639C20.5272 23.0047 20.6319 22.9306 20.7284 22.8983C20.7538 22.9491 20.7748 23.0195 20.7822 23.1191C20.8213 23.6646 20.442 24.4946 19.9717 25.1442Z" fill="white"/>
<rect x="7.71455" y="9.25739" width="20.5709" height="3.08563" rx="1.54282" fill="white"/>
<rect x="8.48596" y="18.7714" width="7.71409" height="1.54282" rx="0.771408" fill="white"/>
<rect x="8.48596" y="15.9429" width="10.2854" height="1.54282" rx="0.771408" fill="white"/>
</svg>
