<svg width="771" height="504" viewBox="0 0 771 504" fill="none" xmlns="http://www.w3.org/2000/svg">
<rect x="147" width="151.602" height="60.6408" rx="30.3204" fill="#FF0000"/>
<path d="M191.524 30.856C191.524 22.9362 186.69 18.2704 180.266 18.2704C173.829 18.2704 169.008 22.9362 169.008 30.856C169.008 38.7639 173.829 43.4417 180.266 43.4417C186.69 43.4417 191.524 38.7759 191.524 30.856ZM187.061 30.856C187.061 36.431 184.262 39.4578 180.266 39.4578C176.282 39.4578 173.471 36.431 173.471 30.856C173.471 25.281 176.282 22.2542 180.266 22.2542C184.262 22.2542 187.061 25.281 187.061 30.856ZM199.321 43.1067H203.843L207.288 30.6885H207.54L210.985 43.1067H215.495L220.7 24.7307H216.273L213.091 37.5795H212.911L209.609 24.7307H205.243L201.941 37.6513H201.773L198.543 24.7307H194.129L199.321 43.1067ZM228.054 32.3395C228.054 29.6836 229.657 28.1523 231.942 28.1523C234.18 28.1523 235.519 29.6238 235.519 32.0763V43.1067H239.85V31.4063C239.862 27.0038 237.35 24.4914 233.557 24.4914C230.806 24.4914 228.916 25.8074 228.078 27.8532H227.863V24.7307H223.723V43.1067H228.054V32.3395ZM252.388 43.4656C256.671 43.4656 259.614 41.372 260.38 38.1777L256.336 37.7231C255.75 39.2784 254.314 40.0919 252.448 40.0919C249.648 40.0919 247.794 38.2495 247.758 35.1031H260.559V33.7751C260.559 27.3268 256.683 24.4914 252.161 24.4914C246.897 24.4914 243.463 28.3556 243.463 34.0264C243.463 39.7928 246.849 43.4656 252.388 43.4656ZM247.77 32.184C247.902 29.8391 249.636 27.8651 252.221 27.8651C254.709 27.8651 256.384 29.6836 256.408 32.184H247.77ZM264.223 43.1067H268.554V32.3036C268.554 29.9707 270.312 28.3198 272.693 28.3198C273.423 28.3198 274.332 28.4514 274.703 28.571V24.5871C274.308 24.5154 273.626 24.4675 273.148 24.4675C271.042 24.4675 269.284 25.6639 268.614 27.7934H268.422V24.7307H264.223V43.1067Z" fill="white"/>
<rect x="237" y="141" width="192.029" height="60.6408" rx="30.3204" fill="#FF0000"/>
<path d="M259.63 184.107H264.069V175.134H268.591L273.4 184.107H278.353L273.053 174.392C275.937 173.232 277.456 170.767 277.456 167.441C277.456 162.764 274.441 159.605 268.818 159.605H259.63V184.107ZM264.069 171.449V163.314H268.136C271.45 163.314 272.934 164.833 272.934 167.441C272.934 170.05 271.45 171.449 268.16 171.449H264.069ZM289.222 184.466C293.505 184.466 296.448 182.372 297.214 179.178L293.17 178.723C292.584 180.278 291.148 181.092 289.282 181.092C286.482 181.092 284.628 179.249 284.592 176.103H297.393V174.775C297.393 168.327 293.517 165.491 288.995 165.491C283.731 165.491 280.297 169.356 280.297 175.026C280.297 180.793 283.683 184.466 289.222 184.466ZM284.604 173.184C284.736 170.839 286.47 168.865 289.055 168.865C291.543 168.865 293.218 170.684 293.242 173.184H284.604ZM309.073 184.466C313.69 184.466 316.634 181.726 316.945 177.826H312.805C312.434 179.8 311.011 180.936 309.108 180.936C306.405 180.936 304.658 178.675 304.658 174.919C304.658 171.21 306.441 168.985 309.108 168.985C311.19 168.985 312.47 170.325 312.805 172.095H316.945C316.645 168.111 313.535 165.491 309.049 165.491C303.665 165.491 300.267 169.38 300.267 174.99C300.267 180.554 303.581 184.466 309.073 184.466ZM320.501 184.107H324.832V173.304C324.832 170.971 326.59 169.32 328.971 169.32C329.701 169.32 330.61 169.451 330.981 169.571V165.587C330.586 165.515 329.904 165.467 329.426 165.467C327.32 165.467 325.561 166.664 324.891 168.793H324.7V165.731H320.501V184.107ZM345.57 176.378C345.57 179.178 343.572 180.565 341.658 180.565C339.577 180.565 338.189 179.094 338.189 176.761V165.731H333.858V177.431C333.858 181.846 336.37 184.346 339.983 184.346C342.735 184.346 344.673 182.898 345.511 180.841H345.702V184.107H349.901V165.731H345.57V176.378ZM354.355 184.107H358.685V165.731H354.355V184.107ZM356.532 163.123C357.908 163.123 359.032 162.07 359.032 160.778C359.032 159.474 357.908 158.421 356.532 158.421C355.144 158.421 354.02 159.474 354.02 160.778C354.02 162.07 355.144 163.123 356.532 163.123ZM372.315 165.731H368.69V161.328H364.359V165.731H361.751V169.08H364.359V179.297C364.335 182.755 366.847 184.454 370.102 184.358C371.334 184.322 372.183 184.083 372.65 183.927L371.92 180.542C371.681 180.601 371.19 180.709 370.652 180.709C369.563 180.709 368.69 180.326 368.69 178.58V169.08H372.315V165.731ZM383.875 184.466C388.158 184.466 391.101 182.372 391.866 179.178L387.823 178.723C387.236 180.278 385.801 181.092 383.934 181.092C381.135 181.092 379.281 179.249 379.245 176.103H392.046V174.775C392.046 168.327 388.169 165.491 383.647 165.491C378.383 165.491 374.95 169.356 374.95 175.026C374.95 180.793 378.335 184.466 383.875 184.466ZM379.257 173.184C379.388 170.839 381.123 168.865 383.707 168.865C386.196 168.865 387.87 170.684 387.894 173.184H379.257ZM395.71 184.107H400.04V173.304C400.04 170.971 401.799 169.32 404.18 169.32C404.909 169.32 405.819 169.451 406.19 169.571V165.587C405.795 165.515 405.113 165.467 404.634 165.467C402.529 165.467 400.77 166.664 400.1 168.793H399.909V165.731H395.71V184.107Z" fill="white"/>
<rect x="242" y="282" width="181.922" height="60.6408" rx="30.3204" fill="black"/>
<path d="M267.908 300.605H263.039L271.665 325.107H277.144L285.782 300.605H280.901L274.536 319.891H274.285L267.908 300.605ZM292.164 325.478C295.048 325.478 296.77 324.126 297.56 322.582H297.703V325.107H301.867V312.808C301.867 307.951 297.907 306.491 294.402 306.491C290.537 306.491 287.57 308.214 286.613 311.564L290.657 312.138C291.088 310.882 292.308 309.805 294.425 309.805C296.435 309.805 297.536 310.834 297.536 312.641V312.712C297.536 313.957 296.232 314.016 292.99 314.363C289.425 314.746 286.015 315.811 286.015 319.95C286.015 323.563 288.659 325.478 292.164 325.478ZM293.289 322.295C291.482 322.295 290.19 321.47 290.19 319.879C290.19 318.216 291.638 317.522 293.576 317.247C294.713 317.091 296.986 316.804 297.548 316.349V318.515C297.548 320.561 295.897 322.295 293.289 322.295ZM314.237 325.466C318.855 325.466 321.798 322.726 322.109 318.826H317.97C317.599 320.8 316.175 321.936 314.273 321.936C311.569 321.936 309.823 319.675 309.823 315.919C309.823 312.21 311.605 309.985 314.273 309.985C316.355 309.985 317.635 311.325 317.97 313.095H322.109C321.81 309.111 318.699 306.491 314.213 306.491C308.83 306.491 305.432 310.38 305.432 315.99C305.432 321.554 308.746 325.466 314.237 325.466ZM330.953 325.478C333.836 325.478 335.559 324.126 336.349 322.582H336.492V325.107H340.656V312.808C340.656 307.951 336.696 306.491 333.19 306.491C329.326 306.491 326.359 308.214 325.402 311.564L329.446 312.138C329.876 310.882 331.097 309.805 333.214 309.805C335.224 309.805 336.325 310.834 336.325 312.641V312.712C336.325 313.957 335.021 314.016 331.779 314.363C328.213 314.746 324.804 315.811 324.804 319.95C324.804 323.563 327.448 325.478 330.953 325.478ZM332.078 322.295C330.271 322.295 328.979 321.47 328.979 319.879C328.979 318.216 330.427 317.522 332.365 317.247C333.501 317.091 335.774 316.804 336.337 316.349V318.515C336.337 320.561 334.686 322.295 332.078 322.295ZM349.341 314.34C349.341 311.684 350.944 310.152 353.229 310.152C355.466 310.152 356.806 311.624 356.806 314.076V325.107H361.137V313.406C361.149 309.004 358.637 306.491 354.844 306.491C352.093 306.491 350.202 307.807 349.365 309.853H349.15V306.731H345.01V325.107H349.341V314.34ZM373.555 325.466C378.173 325.466 381.116 322.726 381.427 318.826H377.288C376.917 320.8 375.493 321.936 373.591 321.936C370.887 321.936 369.141 319.675 369.141 315.919C369.141 312.21 370.923 309.985 373.591 309.985C375.673 309.985 376.953 311.325 377.288 313.095H381.427C381.128 309.111 378.018 306.491 373.531 306.491C368.148 306.491 364.75 310.38 364.75 315.99C364.75 321.554 368.064 325.466 373.555 325.466ZM387.675 331.998C391.049 331.998 392.999 330.263 394.04 327.332L401.421 306.755L396.791 306.731L392.544 320.608H392.353L388.118 306.731H383.524L390.188 325.49L389.817 326.482C389.015 328.576 387.747 328.72 385.857 328.169L384.852 331.543C385.438 331.782 386.491 331.998 387.675 331.998Z" fill="white"/>
<path d="M334.515 205.641C334.515 204.812 333.843 204.141 333.015 204.141C332.186 204.141 331.515 204.812 331.515 205.641H334.515ZM331.901 279.061C332.486 279.646 333.436 279.646 334.022 279.061L343.568 269.515C344.154 268.929 344.154 267.979 343.568 267.393C342.982 266.807 342.032 266.807 341.446 267.393L332.961 275.879L324.476 267.393C323.89 266.807 322.94 266.807 322.355 267.393C321.769 267.979 321.769 268.929 322.355 269.515L331.901 279.061ZM331.515 205.641V241.794H334.515V205.641H331.515ZM331.461 241.847V278H334.461V241.847H331.461ZM332.988 240.32C332.145 240.32 331.461 241.004 331.461 241.847H334.461C334.461 242.661 333.802 243.32 332.988 243.32V240.32ZM331.515 241.794C331.515 240.98 332.174 240.32 332.988 240.32V243.32C333.831 243.32 334.515 242.637 334.515 241.794H331.515Z" fill="black"/>
<rect x="160" y="443" width="138.126" height="60.6408" rx="30.3204" fill="#FF0000"/>
<path d="M182.63 486.107H198.661V482.386H187.069V475.698H197.74V471.978H187.069V465.326H198.566V461.605H182.63V486.107ZM209.722 486.43C212.88 486.43 214.304 484.551 214.986 483.212H215.249V486.107H219.508V461.605H215.165V470.769H214.986C214.328 469.441 212.976 467.491 209.734 467.491C205.487 467.491 202.149 470.817 202.149 476.943C202.149 482.996 205.391 486.43 209.722 486.43ZM210.93 482.877C208.071 482.877 206.563 480.364 206.563 476.919C206.563 473.497 208.047 471.045 210.93 471.045C213.718 471.045 215.249 473.354 215.249 476.919C215.249 480.484 213.694 482.877 210.93 482.877ZM224.123 486.107H228.454V467.731H224.123V486.107ZM226.3 465.123C227.676 465.123 228.801 464.07 228.801 462.778C228.801 461.474 227.676 460.421 226.3 460.421C224.912 460.421 223.788 461.474 223.788 462.778C223.788 464.07 224.912 465.123 226.3 465.123ZM242.083 467.731H238.458V463.328H234.127V467.731H231.519V471.08H234.127V481.297C234.103 484.755 236.616 486.454 239.87 486.358C241.102 486.322 241.951 486.083 242.418 485.927L241.688 482.542C241.449 482.601 240.958 482.709 240.42 482.709C239.331 482.709 238.458 482.326 238.458 480.58V471.08H242.083V467.731ZM253.523 486.466C258.907 486.466 262.328 482.673 262.328 476.99C262.328 471.296 258.907 467.491 253.523 467.491C248.14 467.491 244.718 471.296 244.718 476.99C244.718 482.673 248.14 486.466 253.523 486.466ZM253.547 482.996C250.568 482.996 249.109 480.34 249.109 476.979C249.109 473.617 250.568 470.925 253.547 470.925C256.478 470.925 257.938 473.617 257.938 476.979C257.938 480.34 256.478 482.996 253.547 482.996ZM266.004 486.107H270.335V475.304C270.335 472.971 272.094 471.32 274.474 471.32C275.204 471.32 276.113 471.451 276.484 471.571V467.587C276.089 467.515 275.407 467.467 274.929 467.467C272.823 467.467 271.065 468.664 270.395 470.793H270.203V467.731H266.004V486.107Z" fill="white"/>
<rect x="362.029" y="443" width="154.971" height="60.6408" rx="30.3204" fill="#FF0000"/>
<path d="M387.937 461.605H383.068L391.694 486.107H397.173L405.811 461.605H400.93L394.565 480.891H394.314L387.937 461.605ZM408.847 486.107H413.177V467.731H408.847V486.107ZM411.024 465.123C412.4 465.123 413.524 464.07 413.524 462.778C413.524 461.474 412.4 460.421 411.024 460.421C409.636 460.421 408.512 461.474 408.512 462.778C408.512 464.07 409.636 465.123 411.024 465.123ZM425.766 486.466C430.049 486.466 432.992 484.372 433.758 481.178L429.714 480.723C429.128 482.278 427.692 483.092 425.826 483.092C423.026 483.092 421.172 481.249 421.136 478.103H433.937V476.775C433.937 470.327 430.061 467.491 425.539 467.491C420.275 467.491 416.841 471.356 416.841 477.026C416.841 482.793 420.227 486.466 425.766 486.466ZM421.148 475.184C421.28 472.839 423.014 470.865 425.599 470.865C428.087 470.865 429.762 472.684 429.786 475.184H421.148ZM441.295 486.107H445.817L449.262 473.689H449.514L452.959 486.107H457.469L462.674 467.731H458.247L455.065 480.58H454.885L451.583 467.731H447.217L443.915 480.651H443.747L440.517 467.731H436.103L441.295 486.107ZM473.339 486.466C477.622 486.466 480.565 484.372 481.331 481.178L477.287 480.723C476.701 482.278 475.265 483.092 473.399 483.092C470.599 483.092 468.745 481.249 468.709 478.103H481.51V476.775C481.51 470.327 477.634 467.491 473.112 467.491C467.848 467.491 464.414 471.356 464.414 477.026C464.414 482.793 467.8 486.466 473.339 486.466ZM468.721 475.184C468.853 472.839 470.587 470.865 473.172 470.865C475.66 470.865 477.335 472.684 477.359 475.184H468.721ZM485.174 486.107H489.505V475.304C489.505 472.971 491.263 471.32 493.644 471.32C494.374 471.32 495.283 471.451 495.654 471.571V467.587C495.259 467.515 494.577 467.467 494.099 467.467C491.993 467.467 490.235 468.664 489.565 470.793H489.373V467.731H485.174V486.107Z" fill="white"/>
<path d="M334.461 346.641C334.461 345.812 333.79 345.141 332.961 345.141C332.133 345.141 331.461 345.812 331.461 346.641H334.461ZM228.002 440.061C228.588 440.646 229.538 440.646 230.124 440.061L239.67 430.515C240.255 429.929 240.255 428.979 239.67 428.393C239.084 427.807 238.134 427.807 237.548 428.393L229.063 436.879L220.578 428.393C219.992 427.807 219.042 427.807 218.457 428.393C217.871 428.979 217.871 429.929 218.457 430.515L228.002 440.061ZM331.461 346.641V368.82H334.461V346.641H331.461ZM308.961 391.32H253.063V394.32H308.961V391.32ZM227.563 416.82V439H230.563V416.82H227.563ZM253.063 391.32C238.98 391.32 227.563 402.737 227.563 416.82H230.563C230.563 404.394 240.637 394.32 253.063 394.32V391.32ZM331.461 368.82C331.461 381.247 321.388 391.32 308.961 391.32V394.32C323.044 394.32 334.461 382.903 334.461 368.82H331.461Z" fill="black"/>
<path d="M334.461 346.641C334.461 345.812 333.79 345.141 332.961 345.141C332.133 345.141 331.461 345.812 331.461 346.641H334.461ZM438.454 440.061C439.04 440.646 439.989 440.646 440.575 440.061L450.121 430.515C450.707 429.929 450.707 428.979 450.121 428.393C449.535 427.807 448.586 427.807 448 428.393L439.515 436.879L431.029 428.393C430.444 427.807 429.494 427.807 428.908 428.393C428.322 428.979 428.322 429.929 428.908 430.515L438.454 440.061ZM331.461 346.641V368.82H334.461V346.641H331.461ZM356.961 394.32H415.515V391.32H356.961V394.32ZM438.015 416.82V439H441.015V416.82H438.015ZM415.515 394.32C427.941 394.32 438.015 404.394 438.015 416.82H441.015C441.015 402.737 429.598 391.32 415.515 391.32V394.32ZM331.461 368.82C331.461 382.903 342.878 394.32 356.961 394.32V391.32C344.535 391.32 334.461 381.247 334.461 368.82H331.461Z" fill="black"/>
<rect x="359" width="198.767" height="60.6408" rx="30.3204" fill="black"/>
<path d="M402.602 26.8722C401.849 21.4288 397.661 18.2704 392.23 18.2704C385.829 18.2704 381.008 22.9362 381.008 30.856C381.008 38.7639 385.77 43.4417 392.23 43.4417C398.056 43.4417 401.92 39.6732 402.602 34.9954L398.128 34.9715C397.566 37.8427 395.221 39.4578 392.29 39.4578C388.318 39.4578 385.47 36.4789 385.47 30.856C385.47 25.3289 388.294 22.2542 392.302 22.2542C395.281 22.2542 397.613 23.9411 398.128 26.8722H402.602ZM414.491 43.4656C419.875 43.4656 423.296 39.6732 423.296 33.9905C423.296 28.2958 419.875 24.4914 414.491 24.4914C409.107 24.4914 405.686 28.2958 405.686 33.9905C405.686 39.6732 409.107 43.4656 414.491 43.4656ZM414.515 39.9962C411.536 39.9962 410.076 37.3403 410.076 33.9785C410.076 30.6168 411.536 27.925 414.515 27.925C417.446 27.925 418.906 30.6168 418.906 33.9785C418.906 37.3403 417.446 39.9962 414.515 39.9962ZM426.972 43.1067H431.303V31.9327C431.303 29.6716 432.81 28.1403 434.677 28.1403C436.507 28.1403 437.763 29.3725 437.763 31.2628V43.1067H442.01V31.6456C442.01 29.5759 443.242 28.1403 445.336 28.1403C447.083 28.1403 448.47 29.1692 448.47 31.4422V43.1067H452.813V30.7723C452.813 26.6688 450.444 24.4914 447.071 24.4914C444.403 24.4914 442.369 25.8074 441.556 27.8532H441.364C440.658 25.7715 438.876 24.4914 436.399 24.4914C433.935 24.4914 432.092 25.7596 431.327 27.8532H431.111V24.7307H426.972V43.1067ZM457.207 49.9977H461.538V40.2115H461.717C462.399 41.5514 463.823 43.4297 466.981 43.4297C471.312 43.4297 474.554 39.9962 474.554 33.9426C474.554 27.8173 471.216 24.4914 466.969 24.4914C463.727 24.4914 462.375 26.4415 461.717 27.7694H461.466V24.7307H457.207V49.9977ZM461.454 33.9187C461.454 30.3536 462.985 28.0446 465.773 28.0446C468.656 28.0446 470.139 30.4971 470.139 33.9187C470.139 37.3642 468.632 39.8765 465.773 39.8765C463.009 39.8765 461.454 37.4838 461.454 33.9187ZM483.551 43.4776C486.434 43.4776 488.157 42.1257 488.946 40.5824H489.09V43.1067H493.253V30.8082C493.253 25.951 489.293 24.4914 485.788 24.4914C481.924 24.4914 478.957 26.2142 477.999 29.564L482.043 30.1382C482.474 28.882 483.694 27.8053 485.812 27.8053C487.822 27.8053 488.922 28.8342 488.922 30.6407V30.7125C488.922 31.9567 487.618 32.0165 484.376 32.3634C480.811 32.7463 477.401 33.811 477.401 37.9504C477.401 41.5634 480.045 43.4776 483.551 43.4776ZM484.675 40.2953C482.869 40.2953 481.577 39.4698 481.577 37.8786C481.577 36.2157 483.024 35.5218 484.962 35.2466C486.099 35.0911 488.372 34.804 488.934 34.3494V36.5148C488.934 38.5605 487.283 40.2953 484.675 40.2953ZM501.939 32.3395C501.939 29.6836 503.542 28.1523 505.827 28.1523C508.064 28.1523 509.404 29.6238 509.404 32.0763V43.1067H513.735V31.4063C513.747 27.0038 511.234 24.4914 507.442 24.4914C504.69 24.4914 502.8 25.8074 501.962 27.8532H501.747V24.7307H497.608V43.1067H501.939V32.3395ZM520.171 49.9977C523.545 49.9977 525.495 48.263 526.536 45.3319L533.917 24.7546L529.287 24.7307L525.04 38.6084H524.849L520.614 24.7307H516.02L522.683 43.4895L522.312 44.4825C521.511 46.5761 520.243 46.7197 518.352 46.1694L517.348 49.5431C517.934 49.7823 518.987 49.9977 520.171 49.9977Z" fill="white"/>
<path d="M459.884 64.6409C459.884 63.8124 459.212 63.1409 458.384 63.1409C457.555 63.1409 456.884 63.8124 456.884 64.6409H459.884ZM331.954 138.061C332.54 138.647 333.489 138.647 334.075 138.061L343.621 128.515C344.207 127.929 344.207 126.979 343.621 126.393C343.035 125.808 342.086 125.808 341.5 126.393L333.015 134.879L324.529 126.393C323.944 125.808 322.994 125.808 322.408 126.393C321.822 126.979 321.822 127.929 322.408 128.515L331.954 138.061ZM456.884 64.6409V76.8205H459.884V64.6409H456.884ZM434.384 99.3205H357.015V102.32H434.384V99.3205ZM331.515 124.82V137H334.515V124.82H331.515ZM357.015 99.3205C342.931 99.3205 331.515 110.737 331.515 124.82H334.515C334.515 112.394 344.588 102.32 357.015 102.32V99.3205ZM456.884 76.8205C456.884 89.2469 446.81 99.3205 434.384 99.3205V102.32C448.467 102.32 459.884 90.9037 459.884 76.8205H456.884Z" fill="black"/>
<path d="M302.602 28.8203C301.774 28.8203 301.102 29.4919 301.102 30.3203C301.102 31.1487 301.774 31.8203 302.602 31.8203V28.8203ZM356.061 31.381C356.646 30.7952 356.646 29.8454 356.061 29.2597L346.515 19.7137C345.929 19.1279 344.979 19.1279 344.393 19.7137C343.808 20.2995 343.808 21.2492 344.393 21.835L352.879 30.3203L344.393 38.8056C343.808 39.3914 343.808 40.3411 344.393 40.9269C344.979 41.5127 345.929 41.5127 346.515 40.9269L356.061 31.381ZM302.602 31.8203H355V28.8203H302.602V31.8203Z" fill="black"/>
<rect x="489" y="141" width="192.029" height="60.6408" rx="30.3204" fill="#FF0000"/>
<path d="M511.63 184.107H516.069V175.134H520.591L525.4 184.107H530.353L525.053 174.392C527.937 173.232 529.456 170.767 529.456 167.441C529.456 162.764 526.441 159.605 520.818 159.605H511.63V184.107ZM516.069 171.449V163.314H520.136C523.45 163.314 524.934 164.833 524.934 167.441C524.934 170.05 523.45 171.449 520.16 171.449H516.069ZM541.222 184.466C545.505 184.466 548.448 182.372 549.214 179.178L545.17 178.723C544.584 180.278 543.148 181.092 541.282 181.092C538.482 181.092 536.628 179.249 536.592 176.103H549.393V174.775C549.393 168.327 545.517 165.491 540.995 165.491C535.731 165.491 532.297 169.356 532.297 175.026C532.297 180.793 535.683 184.466 541.222 184.466ZM536.604 173.184C536.736 170.839 538.47 168.865 541.055 168.865C543.543 168.865 545.218 170.684 545.242 173.184H536.604ZM561.073 184.466C565.69 184.466 568.634 181.726 568.945 177.826H564.805C564.434 179.8 563.011 180.936 561.108 180.936C558.405 180.936 556.658 178.675 556.658 174.919C556.658 171.21 558.441 168.985 561.108 168.985C563.19 168.985 564.47 170.325 564.805 172.095H568.945C568.645 168.111 565.535 165.491 561.049 165.491C555.665 165.491 552.267 169.38 552.267 174.99C552.267 180.554 555.581 184.466 561.073 184.466ZM572.501 184.107H576.832V173.304C576.832 170.971 578.59 169.32 580.971 169.32C581.701 169.32 582.61 169.451 582.981 169.571V165.587C582.586 165.515 581.904 165.467 581.426 165.467C579.32 165.467 577.561 166.664 576.891 168.793H576.7V165.731H572.501V184.107ZM597.57 176.378C597.57 179.178 595.572 180.565 593.658 180.565C591.577 180.565 590.189 179.094 590.189 176.761V165.731H585.858V177.431C585.858 181.846 588.37 184.346 591.983 184.346C594.735 184.346 596.673 182.898 597.511 180.841H597.702V184.107H601.901V165.731H597.57V176.378ZM606.355 184.107H610.685V165.731H606.355V184.107ZM608.532 163.123C609.908 163.123 611.032 162.07 611.032 160.778C611.032 159.474 609.908 158.421 608.532 158.421C607.144 158.421 606.02 159.474 606.02 160.778C606.02 162.07 607.144 163.123 608.532 163.123ZM624.315 165.731H620.69V161.328H616.359V165.731H613.751V169.08H616.359V179.297C616.335 182.755 618.847 184.454 622.102 184.358C623.334 184.322 624.183 184.083 624.65 183.927L623.92 180.542C623.681 180.601 623.19 180.709 622.652 180.709C621.563 180.709 620.69 180.326 620.69 178.58V169.08H624.315V165.731ZM635.875 184.466C640.158 184.466 643.101 182.372 643.866 179.178L639.823 178.723C639.236 180.278 637.801 181.092 635.934 181.092C633.135 181.092 631.281 179.249 631.245 176.103H644.046V174.775C644.046 168.327 640.169 165.491 635.647 165.491C630.383 165.491 626.95 169.356 626.95 175.026C626.95 180.793 630.335 184.466 635.875 184.466ZM631.257 173.184C631.388 170.839 633.123 168.865 635.707 168.865C638.196 168.865 639.87 170.684 639.894 173.184H631.257ZM647.71 184.107H652.04V173.304C652.04 170.971 653.799 169.32 656.18 169.32C656.909 169.32 657.819 169.451 658.19 169.571V165.587C657.795 165.515 657.113 165.467 656.634 165.467C654.529 165.467 652.77 166.664 652.1 168.793H651.909V165.731H647.71V184.107Z" fill="white"/>
<path d="M459.883 64.6409C459.883 63.8124 459.212 63.1409 458.383 63.1409C457.555 63.1409 456.883 63.8124 456.883 64.6409H459.883ZM583.954 138.061C584.54 138.647 585.489 138.647 586.075 138.061L595.621 128.515C596.207 127.929 596.207 126.979 595.621 126.393C595.035 125.808 594.086 125.808 593.5 126.393L585.015 134.879L576.529 126.393C575.943 125.808 574.994 125.808 574.408 126.393C573.822 126.979 573.822 127.929 574.408 128.515L583.954 138.061ZM456.883 64.6409V76.8205H459.883V64.6409H456.883ZM482.383 102.32H561.015V99.3205H482.383V102.32ZM583.515 124.82V137H586.515V124.82H583.515ZM561.015 102.32C573.441 102.32 583.515 112.394 583.515 124.82H586.515C586.515 110.737 575.098 99.3205 561.015 99.3205V102.32ZM456.883 76.8205C456.883 90.9037 468.3 102.32 482.383 102.32V99.3205C469.957 99.3205 459.883 89.2469 459.883 76.8205H456.883Z" fill="black"/>
<rect x="494" y="282" width="181.922" height="60.6408" rx="30.3204" fill="black"/>
<path d="M519.908 300.605H515.039L523.665 325.107H529.144L537.782 300.605H532.901L526.536 319.891H526.285L519.908 300.605ZM544.164 325.478C547.048 325.478 548.77 324.126 549.56 322.582H549.703V325.107H553.867V312.808C553.867 307.951 549.907 306.491 546.402 306.491C542.537 306.491 539.57 308.214 538.613 311.564L542.657 312.138C543.088 310.882 544.308 309.805 546.425 309.805C548.435 309.805 549.536 310.834 549.536 312.641V312.712C549.536 313.957 548.232 314.016 544.99 314.363C541.425 314.746 538.015 315.811 538.015 319.95C538.015 323.563 540.659 325.478 544.164 325.478ZM545.289 322.295C543.482 322.295 542.19 321.47 542.19 319.879C542.19 318.216 543.638 317.522 545.576 317.247C546.713 317.091 548.986 316.804 549.548 316.349V318.515C549.548 320.561 547.897 322.295 545.289 322.295ZM566.237 325.466C570.855 325.466 573.798 322.726 574.109 318.826H569.97C569.599 320.8 568.175 321.936 566.273 321.936C563.569 321.936 561.823 319.675 561.823 315.919C561.823 312.21 563.605 309.985 566.273 309.985C568.355 309.985 569.635 311.325 569.97 313.095H574.109C573.81 309.111 570.699 306.491 566.213 306.491C560.83 306.491 557.432 310.38 557.432 315.99C557.432 321.554 560.746 325.466 566.237 325.466ZM582.953 325.478C585.836 325.478 587.559 324.126 588.349 322.582H588.492V325.107H592.656V312.808C592.656 307.951 588.696 306.491 585.19 306.491C581.326 306.491 578.359 308.214 577.402 311.564L581.446 312.138C581.876 310.882 583.097 309.805 585.214 309.805C587.224 309.805 588.325 310.834 588.325 312.641V312.712C588.325 313.957 587.021 314.016 583.779 314.363C580.213 314.746 576.804 315.811 576.804 319.95C576.804 323.563 579.448 325.478 582.953 325.478ZM584.078 322.295C582.271 322.295 580.979 321.47 580.979 319.879C580.979 318.216 582.427 317.522 584.365 317.247C585.501 317.091 587.774 316.804 588.337 316.349V318.515C588.337 320.561 586.686 322.295 584.078 322.295ZM601.341 314.34C601.341 311.684 602.944 310.152 605.229 310.152C607.466 310.152 608.806 311.624 608.806 314.076V325.107H613.137V313.406C613.149 309.004 610.637 306.491 606.844 306.491C604.093 306.491 602.202 307.807 601.365 309.853H601.15V306.731H597.01V325.107H601.341V314.34ZM625.555 325.466C630.173 325.466 633.116 322.726 633.427 318.826H629.288C628.917 320.8 627.493 321.936 625.591 321.936C622.887 321.936 621.141 319.675 621.141 315.919C621.141 312.21 622.923 309.985 625.591 309.985C627.673 309.985 628.953 311.325 629.288 313.095H633.427C633.128 309.111 630.018 306.491 625.531 306.491C620.148 306.491 616.75 310.38 616.75 315.99C616.75 321.554 620.064 325.466 625.555 325.466ZM639.675 331.998C643.049 331.998 644.999 330.263 646.04 327.332L653.421 306.755L648.791 306.731L644.544 320.608H644.353L640.118 306.731H635.524L642.188 325.49L641.817 326.482C641.015 328.576 639.747 328.72 637.857 328.169L636.852 331.543C637.438 331.782 638.491 331.998 639.675 331.998Z" fill="white"/>
<path d="M586.515 205.641C586.515 204.812 585.843 204.141 585.015 204.141C584.186 204.141 583.515 204.812 583.515 205.641H586.515ZM583.901 279.061C584.486 279.646 585.436 279.646 586.022 279.061L595.568 269.515C596.154 268.929 596.154 267.979 595.568 267.393C594.982 266.807 594.032 266.807 593.446 267.393L584.961 275.879L576.476 267.393C575.89 266.807 574.94 266.807 574.355 267.393C573.769 267.979 573.769 268.929 574.355 269.515L583.901 279.061ZM583.515 205.641V241.794H586.515V205.641H583.515ZM583.461 241.847V278H586.461V241.847H583.461ZM584.988 240.32C584.145 240.32 583.461 241.004 583.461 241.847H586.461C586.461 242.661 585.802 243.32 584.988 243.32V240.32ZM583.515 241.794C583.515 240.98 584.174 240.32 584.988 240.32V243.32C585.831 243.32 586.515 242.637 586.515 241.794H583.515Z" fill="black"/>
<rect x="616" y="443" width="154.971" height="60.6408" rx="30.3204" fill="#FF0000"/>
<path d="M641.908 461.605H637.039L645.665 486.107H651.144L659.782 461.605H654.901L648.536 480.891H648.285L641.908 461.605ZM662.818 486.107H667.148V467.731H662.818V486.107ZM664.995 465.123C666.371 465.123 667.495 464.07 667.495 462.778C667.495 461.474 666.371 460.421 664.995 460.421C663.607 460.421 662.483 461.474 662.483 462.778C662.483 464.07 663.607 465.123 664.995 465.123ZM679.737 486.466C684.02 486.466 686.963 484.372 687.729 481.178L683.685 480.723C683.099 482.278 681.663 483.092 679.797 483.092C676.997 483.092 675.143 481.249 675.107 478.103H687.908V476.775C687.908 470.327 684.032 467.491 679.51 467.491C674.246 467.491 670.812 471.356 670.812 477.026C670.812 482.793 674.198 486.466 679.737 486.466ZM675.119 475.184C675.251 472.839 676.985 470.865 679.569 470.865C682.058 470.865 683.733 472.684 683.757 475.184H675.119ZM695.266 486.107H699.788L703.233 473.689H703.485L706.93 486.107H711.44L716.644 467.731H712.218L709.036 480.58H708.856L705.554 467.731H701.188L697.886 480.651H697.718L694.488 467.731H690.073L695.266 486.107ZM727.31 486.466C731.593 486.466 734.536 484.372 735.302 481.178L731.258 480.723C730.672 482.278 729.236 483.092 727.37 483.092C724.57 483.092 722.716 481.249 722.68 478.103H735.481V476.775C735.481 470.327 731.605 467.491 727.083 467.491C721.819 467.491 718.385 471.356 718.385 477.026C718.385 482.793 721.771 486.466 727.31 486.466ZM722.692 475.184C722.824 472.839 724.558 470.865 727.142 470.865C729.631 470.865 731.306 472.684 731.33 475.184H722.692ZM739.145 486.107H743.476V475.304C743.476 472.971 745.234 471.32 747.615 471.32C748.345 471.32 749.254 471.451 749.625 471.571V467.587C749.23 467.515 748.548 467.467 748.07 467.467C745.964 467.467 744.205 468.664 743.536 470.793H743.344V467.731H739.145V486.107Z" fill="white"/>
<path d="M692.425 440.061C693.011 440.647 693.96 440.647 694.546 440.061L704.092 430.515C704.678 429.929 704.678 428.979 704.092 428.394C703.506 427.808 702.557 427.808 701.971 428.394L693.485 436.879L685 428.394C684.414 427.808 683.465 427.808 682.879 428.394C682.293 428.979 682.293 429.929 682.879 430.515L692.425 440.061ZM691.985 325.884V439H694.985V325.884H691.985ZM679.922 313.821C686.585 313.821 691.985 319.221 691.985 325.884H694.985C694.985 317.565 688.241 310.821 679.922 310.821V313.821Z" fill="black"/>
<rect y="282" width="181.922" height="60.6408" rx="30.3204" fill="black"/>
<path d="M25.9083 300.605H21.0391L29.6648 325.107H35.1441L43.7818 300.605H38.9007L32.5361 319.891H32.2848L25.9083 300.605ZM50.1643 325.478C53.0475 325.478 54.7703 324.126 55.5599 322.582H55.7035V325.107H59.8668V312.808C59.8668 307.951 55.9068 306.491 52.4015 306.491C48.5373 306.491 45.5703 308.214 44.6133 311.564L48.6569 312.138C49.0876 310.882 50.3079 309.805 52.4254 309.805C54.4353 309.805 55.536 310.834 55.536 312.641V312.712C55.536 313.957 54.2319 314.016 50.9898 314.363C47.4247 314.746 44.0151 315.811 44.0151 319.95C44.0151 323.563 46.659 325.478 50.1643 325.478ZM51.2889 322.295C49.4824 322.295 48.1904 321.47 48.1904 319.879C48.1904 318.216 49.6379 317.522 51.576 317.247C52.7126 317.091 54.9856 316.804 55.5479 316.349V318.515C55.5479 320.561 53.897 322.295 51.2889 322.295ZM72.2371 325.466C76.855 325.466 79.798 322.726 80.1091 318.826H75.9697C75.5988 320.8 74.1752 321.936 72.273 321.936C69.5692 321.936 67.8225 319.675 67.8225 315.919C67.8225 312.21 69.6051 309.985 72.273 309.985C74.3546 309.985 75.6347 311.325 75.9697 313.095H80.1091C79.81 309.111 76.6995 306.491 72.2131 306.491C66.8295 306.491 63.4319 310.38 63.4319 315.99C63.4319 321.554 66.7458 325.466 72.2371 325.466ZM88.9531 325.478C91.8363 325.478 93.5591 324.126 94.3487 322.582H94.4922V325.107H98.6555V312.808C98.6555 307.951 94.6956 306.491 91.1903 306.491C87.3261 306.491 84.3591 308.214 83.402 311.564L87.4457 312.138C87.8764 310.882 89.0967 309.805 91.2142 309.805C93.2241 309.805 94.3247 310.834 94.3247 312.641V312.712C94.3247 313.957 93.0207 314.016 89.7786 314.363C86.2135 314.746 82.8039 315.811 82.8039 319.95C82.8039 323.563 85.4478 325.478 88.9531 325.478ZM90.0777 322.295C88.2712 322.295 86.9791 321.47 86.9791 319.879C86.9791 318.216 88.4267 317.522 90.3648 317.247C91.5013 317.091 93.7744 316.804 94.3367 316.349V318.515C94.3367 320.561 92.6857 322.295 90.0777 322.295ZM107.341 314.34C107.341 311.684 108.944 310.152 111.229 310.152C113.466 310.152 114.806 311.624 114.806 314.076V325.107H119.137V313.406C119.149 309.004 116.637 306.491 112.844 306.491C110.093 306.491 108.202 307.807 107.365 309.853H107.15V306.731H103.01V325.107H107.341V314.34ZM131.555 325.466C136.173 325.466 139.116 322.726 139.427 318.826H135.288C134.917 320.8 133.493 321.936 131.591 321.936C128.887 321.936 127.141 319.675 127.141 315.919C127.141 312.21 128.923 309.985 131.591 309.985C133.673 309.985 134.953 311.325 135.288 313.095H139.427C139.128 309.111 136.018 306.491 131.531 306.491C126.148 306.491 122.75 310.38 122.75 315.99C122.75 321.554 126.064 325.466 131.555 325.466ZM145.675 331.998C149.049 331.998 150.999 330.263 152.04 327.332L159.421 306.755L154.791 306.731L150.544 320.608H150.353L146.118 306.731H141.524L148.188 325.49L147.817 326.482C147.015 328.576 145.747 328.72 143.857 328.169L142.852 331.543C143.438 331.782 144.491 331.998 145.675 331.998Z" fill="white"/>
<path d="M233 172.821C233.828 172.821 234.5 172.149 234.5 171.321C234.5 170.492 233.828 169.821 233 169.821V172.821ZM89.9005 279.061C90.4863 279.647 91.4361 279.647 92.0218 279.061L101.568 269.515C102.154 268.929 102.154 267.979 101.568 267.394C100.982 266.808 100.032 266.808 99.4465 267.394L90.9612 275.879L82.4759 267.394C81.8901 266.808 80.9404 266.808 80.3546 267.394C79.7688 267.979 79.7688 268.929 80.3546 269.515L89.9005 279.061ZM233 169.821H114.961V172.821H233V169.821ZM89.4612 195.321V278H92.4612V195.321H89.4612ZM114.961 169.821C100.878 169.821 89.4612 181.237 89.4612 195.321H92.4612C92.4612 182.894 102.535 172.821 114.961 172.821V169.821Z" fill="black"/>
</svg>
