<svg width="771" height="444" viewBox="0 0 771 444" fill="none" xmlns="http://www.w3.org/2000/svg">
<rect x="147" width="151.602" height="60.6408" rx="30.3204" fill="black"/>
<path d="M191.524 30.856C191.524 22.9362 186.69 18.2704 180.266 18.2704C173.829 18.2704 169.008 22.9362 169.008 30.856C169.008 38.7639 173.829 43.4417 180.266 43.4417C186.69 43.4417 191.524 38.7759 191.524 30.856ZM187.061 30.856C187.061 36.431 184.262 39.4578 180.266 39.4578C176.282 39.4578 173.471 36.431 173.471 30.856C173.471 25.281 176.282 22.2542 180.266 22.2542C184.262 22.2542 187.061 25.281 187.061 30.856ZM199.321 43.1067H203.843L207.288 30.6885H207.54L210.985 43.1067H215.495L220.7 24.7307H216.273L213.091 37.5795H212.911L209.609 24.7307H205.243L201.941 37.6513H201.773L198.543 24.7307H194.129L199.321 43.1067ZM228.054 32.3395C228.054 29.6836 229.657 28.1523 231.942 28.1523C234.18 28.1523 235.519 29.6238 235.519 32.0763V43.1067H239.85V31.4063C239.862 27.0038 237.35 24.4914 233.557 24.4914C230.806 24.4914 228.916 25.8074 228.078 27.8532H227.863V24.7307H223.723V43.1067H228.054V32.3395ZM252.388 43.4656C256.671 43.4656 259.614 41.372 260.38 38.1777L256.336 37.7231C255.75 39.2784 254.314 40.0919 252.448 40.0919C249.648 40.0919 247.794 38.2495 247.758 35.1031H260.559V33.7751C260.559 27.3268 256.683 24.4914 252.161 24.4914C246.897 24.4914 243.463 28.3556 243.463 34.0264C243.463 39.7928 246.849 43.4656 252.388 43.4656ZM247.77 32.184C247.902 29.8391 249.636 27.8651 252.221 27.8651C254.709 27.8651 256.384 29.6836 256.408 32.184H247.77ZM264.223 43.1067H268.554V32.3036C268.554 29.9707 270.312 28.3198 272.693 28.3198C273.423 28.3198 274.332 28.4514 274.703 28.571V24.5871C274.308 24.5154 273.626 24.4675 273.148 24.4675C271.042 24.4675 269.284 25.6639 268.614 27.7934H268.422V24.7307H264.223V43.1067Z" fill="white"/>
<rect x="237" y="121" width="192.029" height="60.6408" rx="30.3204" fill="#5856D6"/>
<path d="M259.63 164.107H264.069V155.134H268.591L273.4 164.107H278.353L273.053 154.392C275.937 153.232 277.456 150.767 277.456 147.441C277.456 142.764 274.441 139.605 268.818 139.605H259.63V164.107ZM264.069 151.449V143.314H268.136C271.45 143.314 272.934 144.833 272.934 147.441C272.934 150.05 271.45 151.449 268.16 151.449H264.069ZM289.222 164.466C293.505 164.466 296.448 162.372 297.214 159.178L293.17 158.723C292.584 160.278 291.148 161.092 289.282 161.092C286.482 161.092 284.628 159.249 284.592 156.103H297.393V154.775C297.393 148.327 293.517 145.491 288.995 145.491C283.731 145.491 280.297 149.356 280.297 155.026C280.297 160.793 283.683 164.466 289.222 164.466ZM284.604 153.184C284.736 150.839 286.47 148.865 289.055 148.865C291.543 148.865 293.218 150.684 293.242 153.184H284.604ZM309.073 164.466C313.69 164.466 316.634 161.726 316.945 157.826H312.805C312.434 159.8 311.011 160.936 309.108 160.936C306.405 160.936 304.658 158.675 304.658 154.919C304.658 151.21 306.441 148.985 309.108 148.985C311.19 148.985 312.47 150.325 312.805 152.095H316.945C316.645 148.111 313.535 145.491 309.049 145.491C303.665 145.491 300.267 149.38 300.267 154.99C300.267 160.554 303.581 164.466 309.073 164.466ZM320.501 164.107H324.832V153.304C324.832 150.971 326.59 149.32 328.971 149.32C329.701 149.32 330.61 149.451 330.981 149.571V145.587C330.586 145.515 329.904 145.467 329.426 145.467C327.32 145.467 325.561 146.664 324.891 148.793H324.7V145.731H320.501V164.107ZM345.57 156.378C345.57 159.178 343.572 160.565 341.658 160.565C339.577 160.565 338.189 159.094 338.189 156.761V145.731H333.858V157.431C333.858 161.846 336.37 164.346 339.983 164.346C342.735 164.346 344.673 162.898 345.511 160.841H345.702V164.107H349.901V145.731H345.57V156.378ZM354.355 164.107H358.685V145.731H354.355V164.107ZM356.532 143.123C357.908 143.123 359.032 142.07 359.032 140.778C359.032 139.474 357.908 138.421 356.532 138.421C355.144 138.421 354.02 139.474 354.02 140.778C354.02 142.07 355.144 143.123 356.532 143.123ZM372.315 145.731H368.69V141.328H364.359V145.731H361.751V149.08H364.359V159.297C364.335 162.755 366.847 164.454 370.102 164.358C371.334 164.322 372.183 164.083 372.65 163.927L371.92 160.542C371.681 160.601 371.19 160.709 370.652 160.709C369.563 160.709 368.69 160.326 368.69 158.58V149.08H372.315V145.731ZM383.875 164.466C388.158 164.466 391.101 162.372 391.866 159.178L387.823 158.723C387.236 160.278 385.801 161.092 383.934 161.092C381.135 161.092 379.281 159.249 379.245 156.103H392.046V154.775C392.046 148.327 388.169 145.491 383.647 145.491C378.383 145.491 374.95 149.356 374.95 155.026C374.95 160.793 378.335 164.466 383.875 164.466ZM379.257 153.184C379.388 150.839 381.123 148.865 383.707 148.865C386.196 148.865 387.87 150.684 387.894 153.184H379.257ZM395.71 164.107H400.04V153.304C400.04 150.971 401.799 149.32 404.18 149.32C404.909 149.32 405.819 149.451 406.19 149.571V145.587C405.795 145.515 405.113 145.467 404.634 145.467C402.529 145.467 400.77 146.664 400.1 148.793H399.909V145.731H395.71V164.107Z" fill="white"/>
<rect x="242" y="242" width="181.922" height="60.6408" rx="30.3204" fill="#68AFE6"/>
<path d="M267.908 260.605H263.039L271.665 285.107H277.144L285.782 260.605H280.901L274.536 279.891H274.285L267.908 260.605ZM292.164 285.478C295.048 285.478 296.77 284.126 297.56 282.582H297.703V285.107H301.867V272.808C301.867 267.951 297.907 266.491 294.402 266.491C290.537 266.491 287.57 268.214 286.613 271.564L290.657 272.138C291.088 270.882 292.308 269.805 294.425 269.805C296.435 269.805 297.536 270.834 297.536 272.641V272.712C297.536 273.957 296.232 274.016 292.99 274.363C289.425 274.746 286.015 275.811 286.015 279.95C286.015 283.563 288.659 285.478 292.164 285.478ZM293.289 282.295C291.482 282.295 290.19 281.47 290.19 279.879C290.19 278.216 291.638 277.522 293.576 277.247C294.713 277.091 296.986 276.804 297.548 276.349V278.515C297.548 280.561 295.897 282.295 293.289 282.295ZM314.237 285.466C318.855 285.466 321.798 282.726 322.109 278.826H317.97C317.599 280.8 316.175 281.936 314.273 281.936C311.569 281.936 309.823 279.675 309.823 275.919C309.823 272.21 311.605 269.985 314.273 269.985C316.355 269.985 317.635 271.325 317.97 273.095H322.109C321.81 269.111 318.699 266.491 314.213 266.491C308.83 266.491 305.432 270.38 305.432 275.99C305.432 281.554 308.746 285.466 314.237 285.466ZM330.953 285.478C333.836 285.478 335.559 284.126 336.349 282.582H336.492V285.107H340.656V272.808C340.656 267.951 336.696 266.491 333.19 266.491C329.326 266.491 326.359 268.214 325.402 271.564L329.446 272.138C329.876 270.882 331.097 269.805 333.214 269.805C335.224 269.805 336.325 270.834 336.325 272.641V272.712C336.325 273.957 335.021 274.016 331.779 274.363C328.213 274.746 324.804 275.811 324.804 279.95C324.804 283.563 327.448 285.478 330.953 285.478ZM332.078 282.295C330.271 282.295 328.979 281.47 328.979 279.879C328.979 278.216 330.427 277.522 332.365 277.247C333.501 277.091 335.774 276.804 336.337 276.349V278.515C336.337 280.561 334.686 282.295 332.078 282.295ZM349.341 274.34C349.341 271.684 350.944 270.152 353.229 270.152C355.466 270.152 356.806 271.624 356.806 274.076V285.107H361.137V273.406C361.149 269.004 358.637 266.491 354.844 266.491C352.093 266.491 350.202 267.807 349.365 269.853H349.15V266.731H345.01V285.107H349.341V274.34ZM373.555 285.466C378.173 285.466 381.116 282.726 381.427 278.826H377.288C376.917 280.8 375.493 281.936 373.591 281.936C370.887 281.936 369.141 279.675 369.141 275.919C369.141 272.21 370.923 269.985 373.591 269.985C375.673 269.985 376.953 271.325 377.288 273.095H381.427C381.128 269.111 378.018 266.491 373.531 266.491C368.148 266.491 364.75 270.38 364.75 275.99C364.75 281.554 368.064 285.466 373.555 285.466ZM387.675 291.998C391.049 291.998 392.999 290.263 394.04 287.332L401.421 266.755L396.791 266.731L392.544 280.608H392.353L388.118 266.731H383.524L390.188 285.49L389.817 286.482C389.015 288.576 387.747 288.72 385.857 288.169L384.852 291.543C385.438 291.782 386.491 291.998 387.675 291.998Z" fill="white"/>
<path d="M334.515 185.641C334.515 184.812 333.843 184.141 333.015 184.141C332.186 184.141 331.515 184.812 331.515 185.641H334.515ZM331.901 239.061C332.486 239.647 333.436 239.647 334.022 239.061L343.568 229.515C344.154 228.929 344.154 227.979 343.568 227.393C342.982 226.808 342.032 226.808 341.446 227.393L332.961 235.879L324.476 227.393C323.89 226.808 322.94 226.808 322.355 227.393C321.769 227.979 321.769 228.929 322.355 229.515L331.901 239.061ZM331.515 185.641V211.794H334.515V185.641H331.515ZM331.461 211.847V238H334.461V211.847H331.461ZM332.988 210.32C332.145 210.32 331.461 211.004 331.461 211.847H334.461C334.461 212.661 333.802 213.32 332.988 213.32V210.32ZM331.515 211.794C331.515 210.98 332.174 210.32 332.988 210.32V213.32C333.831 213.32 334.515 212.637 334.515 211.794H331.515Z" fill="black"/>
<rect x="160" y="383" width="138.126" height="60.6408" rx="30.3204" fill="#5856D6"/>
<path d="M182.63 426.107H198.661V422.386H187.069V415.698H197.74V411.978H187.069V405.326H198.566V401.605H182.63V426.107ZM209.722 426.43C212.88 426.43 214.304 424.551 214.986 423.212H215.249V426.107H219.508V401.605H215.165V410.769H214.986C214.328 409.441 212.976 407.491 209.734 407.491C205.487 407.491 202.149 410.817 202.149 416.943C202.149 422.996 205.391 426.43 209.722 426.43ZM210.93 422.877C208.071 422.877 206.563 420.364 206.563 416.919C206.563 413.497 208.047 411.045 210.93 411.045C213.718 411.045 215.249 413.354 215.249 416.919C215.249 420.484 213.694 422.877 210.93 422.877ZM224.123 426.107H228.454V407.731H224.123V426.107ZM226.3 405.123C227.676 405.123 228.801 404.07 228.801 402.778C228.801 401.474 227.676 400.421 226.3 400.421C224.912 400.421 223.788 401.474 223.788 402.778C223.788 404.07 224.912 405.123 226.3 405.123ZM242.083 407.731H238.458V403.328H234.127V407.731H231.519V411.08H234.127V421.297C234.103 424.755 236.616 426.454 239.87 426.358C241.102 426.322 241.951 426.083 242.418 425.927L241.688 422.542C241.449 422.601 240.958 422.709 240.42 422.709C239.331 422.709 238.458 422.326 238.458 420.58V411.08H242.083V407.731ZM253.523 426.466C258.907 426.466 262.328 422.673 262.328 416.99C262.328 411.296 258.907 407.491 253.523 407.491C248.14 407.491 244.718 411.296 244.718 416.99C244.718 422.673 248.14 426.466 253.523 426.466ZM253.547 422.996C250.568 422.996 249.109 420.34 249.109 416.979C249.109 413.617 250.568 410.925 253.547 410.925C256.478 410.925 257.938 413.617 257.938 416.979C257.938 420.34 256.478 422.996 253.547 422.996ZM266.004 426.107H270.335V415.304C270.335 412.971 272.094 411.32 274.474 411.32C275.204 411.32 276.113 411.451 276.484 411.571V407.587C276.089 407.515 275.407 407.467 274.929 407.467C272.823 407.467 271.065 408.664 270.395 410.793H270.203V407.731H266.004V426.107Z" fill="white"/>
<rect x="362.029" y="383" width="154.971" height="60.6408" rx="30.3204" fill="#5856D6"/>
<path d="M387.937 401.605H383.068L391.694 426.107H397.173L405.811 401.605H400.93L394.565 420.891H394.314L387.937 401.605ZM408.847 426.107H413.177V407.731H408.847V426.107ZM411.024 405.123C412.4 405.123 413.524 404.07 413.524 402.778C413.524 401.474 412.4 400.421 411.024 400.421C409.636 400.421 408.512 401.474 408.512 402.778C408.512 404.07 409.636 405.123 411.024 405.123ZM425.766 426.466C430.049 426.466 432.992 424.372 433.758 421.178L429.714 420.723C429.128 422.278 427.692 423.092 425.826 423.092C423.026 423.092 421.172 421.249 421.136 418.103H433.937V416.775C433.937 410.327 430.061 407.491 425.539 407.491C420.275 407.491 416.841 411.356 416.841 417.026C416.841 422.793 420.227 426.466 425.766 426.466ZM421.148 415.184C421.28 412.839 423.014 410.865 425.599 410.865C428.087 410.865 429.762 412.684 429.786 415.184H421.148ZM441.295 426.107H445.817L449.262 413.689H449.514L452.959 426.107H457.469L462.674 407.731H458.247L455.065 420.58H454.885L451.583 407.731H447.217L443.915 420.651H443.747L440.517 407.731H436.103L441.295 426.107ZM473.339 426.466C477.622 426.466 480.565 424.372 481.331 421.178L477.287 420.723C476.701 422.278 475.265 423.092 473.399 423.092C470.599 423.092 468.745 421.249 468.709 418.103H481.51V416.775C481.51 410.327 477.634 407.491 473.112 407.491C467.848 407.491 464.414 411.356 464.414 417.026C464.414 422.793 467.8 426.466 473.339 426.466ZM468.721 415.184C468.853 412.839 470.587 410.865 473.172 410.865C475.66 410.865 477.335 412.684 477.359 415.184H468.721ZM485.174 426.107H489.505V415.304C489.505 412.971 491.263 411.32 493.644 411.32C494.374 411.32 495.283 411.451 495.654 411.571V407.587C495.259 407.515 494.577 407.467 494.099 407.467C491.993 407.467 490.235 408.664 489.565 410.793H489.373V407.731H485.174V426.107Z" fill="white"/>
<path d="M334.461 306.641C334.461 305.812 333.79 305.141 332.961 305.141C332.133 305.141 331.461 305.812 331.461 306.641H334.461ZM228.002 380.061C228.588 380.647 229.538 380.647 230.124 380.061L239.67 370.515C240.255 369.929 240.255 368.979 239.67 368.393C239.084 367.808 238.134 367.808 237.548 368.393L229.063 376.879L220.578 368.393C219.992 367.808 219.042 367.808 218.457 368.393C217.871 368.979 217.871 369.929 218.457 370.515L228.002 380.061ZM331.461 306.641V318.82H334.461V306.641H331.461ZM308.961 341.32H253.063V344.32H308.961V341.32ZM227.563 366.82V379H230.563V366.82H227.563ZM253.063 341.32C238.98 341.32 227.563 352.737 227.563 366.82H230.563C230.563 354.394 240.637 344.32 253.063 344.32V341.32ZM331.461 318.82C331.461 331.247 321.388 341.32 308.961 341.32V344.32C323.044 344.32 334.461 332.904 334.461 318.82H331.461Z" fill="black"/>
<path d="M334.461 306.641C334.461 305.812 333.79 305.141 332.961 305.141C332.133 305.141 331.461 305.812 331.461 306.641H334.461ZM438.454 380.061C439.04 380.647 439.989 380.647 440.575 380.061L450.121 370.515C450.707 369.929 450.707 368.979 450.121 368.393C449.535 367.808 448.586 367.808 448 368.393L439.515 376.879L431.029 368.393C430.444 367.808 429.494 367.808 428.908 368.393C428.322 368.979 428.322 369.929 428.908 370.515L438.454 380.061ZM331.461 306.641V318.82H334.461V306.641H331.461ZM356.961 344.32H415.515V341.32H356.961V344.32ZM438.015 366.82V379H441.015V366.82H438.015ZM415.515 344.32C427.941 344.32 438.015 354.394 438.015 366.82H441.015C441.015 352.737 429.598 341.32 415.515 341.32V344.32ZM331.461 318.82C331.461 332.904 342.878 344.32 356.961 344.32V341.32C344.535 341.32 334.461 331.247 334.461 318.82H331.461Z" fill="black"/>
<rect x="359" width="198.767" height="60.6408" rx="30.3204" fill="#666666"/>
<path d="M402.602 26.8722C401.849 21.4288 397.661 18.2704 392.23 18.2704C385.829 18.2704 381.008 22.9362 381.008 30.856C381.008 38.7639 385.77 43.4417 392.23 43.4417C398.056 43.4417 401.92 39.6732 402.602 34.9954L398.128 34.9715C397.566 37.8427 395.221 39.4578 392.29 39.4578C388.318 39.4578 385.47 36.4789 385.47 30.856C385.47 25.3289 388.294 22.2542 392.302 22.2542C395.281 22.2542 397.613 23.9411 398.128 26.8722H402.602ZM414.491 43.4656C419.875 43.4656 423.296 39.6732 423.296 33.9905C423.296 28.2958 419.875 24.4914 414.491 24.4914C409.107 24.4914 405.686 28.2958 405.686 33.9905C405.686 39.6732 409.107 43.4656 414.491 43.4656ZM414.515 39.9962C411.536 39.9962 410.076 37.3403 410.076 33.9785C410.076 30.6168 411.536 27.925 414.515 27.925C417.446 27.925 418.906 30.6168 418.906 33.9785C418.906 37.3403 417.446 39.9962 414.515 39.9962ZM426.972 43.1067H431.303V31.9327C431.303 29.6716 432.81 28.1403 434.677 28.1403C436.507 28.1403 437.763 29.3725 437.763 31.2628V43.1067H442.01V31.6456C442.01 29.5759 443.242 28.1403 445.336 28.1403C447.083 28.1403 448.47 29.1692 448.47 31.4422V43.1067H452.813V30.7723C452.813 26.6688 450.444 24.4914 447.071 24.4914C444.403 24.4914 442.369 25.8074 441.556 27.8532H441.364C440.658 25.7715 438.876 24.4914 436.399 24.4914C433.935 24.4914 432.092 25.7596 431.327 27.8532H431.111V24.7307H426.972V43.1067ZM457.207 49.9977H461.538V40.2115H461.717C462.399 41.5514 463.823 43.4297 466.981 43.4297C471.312 43.4297 474.554 39.9962 474.554 33.9426C474.554 27.8173 471.216 24.4914 466.969 24.4914C463.727 24.4914 462.375 26.4415 461.717 27.7694H461.466V24.7307H457.207V49.9977ZM461.454 33.9187C461.454 30.3536 462.985 28.0446 465.773 28.0446C468.656 28.0446 470.139 30.4971 470.139 33.9187C470.139 37.3642 468.632 39.8765 465.773 39.8765C463.009 39.8765 461.454 37.4838 461.454 33.9187ZM483.551 43.4776C486.434 43.4776 488.157 42.1257 488.946 40.5824H489.09V43.1067H493.253V30.8082C493.253 25.951 489.293 24.4914 485.788 24.4914C481.924 24.4914 478.957 26.2142 477.999 29.564L482.043 30.1382C482.474 28.882 483.694 27.8053 485.812 27.8053C487.822 27.8053 488.922 28.8342 488.922 30.6407V30.7125C488.922 31.9567 487.618 32.0165 484.376 32.3634C480.811 32.7463 477.401 33.811 477.401 37.9504C477.401 41.5634 480.045 43.4776 483.551 43.4776ZM484.675 40.2953C482.869 40.2953 481.577 39.4698 481.577 37.8786C481.577 36.2157 483.024 35.5218 484.962 35.2466C486.099 35.0911 488.372 34.804 488.934 34.3494V36.5148C488.934 38.5605 487.283 40.2953 484.675 40.2953ZM501.939 32.3395C501.939 29.6836 503.542 28.1523 505.827 28.1523C508.064 28.1523 509.404 29.6238 509.404 32.0763V43.1067H513.735V31.4063C513.747 27.0038 511.234 24.4914 507.442 24.4914C504.69 24.4914 502.8 25.8074 501.962 27.8532H501.747V24.7307H497.608V43.1067H501.939V32.3395ZM520.171 49.9977C523.545 49.9977 525.495 48.263 526.536 45.3319L533.917 24.7546L529.287 24.7307L525.04 38.6084H524.849L520.614 24.7307H516.02L522.683 43.4895L522.312 44.4825C521.511 46.5761 520.243 46.7197 518.352 46.1694L517.348 49.5431C517.934 49.7823 518.987 49.9977 520.171 49.9977Z" fill="white"/>
<path d="M459.883 64.6409C459.883 63.8124 459.212 63.1409 458.383 63.1409C457.555 63.1409 456.883 63.8124 456.883 64.6409H459.883ZM331.954 118.061C332.54 118.647 333.489 118.647 334.075 118.061L343.621 108.515C344.207 107.929 344.207 106.979 343.621 106.393C343.035 105.808 342.086 105.808 341.5 106.393L333.015 114.879L324.529 106.393C323.943 105.808 322.994 105.808 322.408 106.393C321.822 106.979 321.822 107.929 322.408 108.515L331.954 118.061ZM456.883 64.6409V66.8205H459.883V64.6409H456.883ZM434.383 89.3205H357.015V92.3205H434.383V89.3205ZM331.515 114.82V117H334.515V114.82H331.515ZM357.015 89.3205C342.931 89.3205 331.515 100.737 331.515 114.82H334.515C334.515 102.394 344.588 92.3205 357.015 92.3205V89.3205ZM456.883 66.8205C456.883 79.2469 446.81 89.3205 434.383 89.3205V92.3205C448.467 92.3205 459.883 80.9038 459.883 66.8205H456.883Z" fill="black"/>
<path d="M302.602 28.8206C301.774 28.8206 301.102 29.4921 301.102 30.3206C301.102 31.149 301.774 31.8206 302.602 31.8206V28.8206ZM356.061 31.3812C356.646 30.7954 356.646 29.8457 356.061 29.2599L346.515 19.714C345.929 19.1282 344.979 19.1282 344.393 19.714C343.808 20.2997 343.808 21.2495 344.393 21.8353L352.879 30.3206L344.393 38.8058C343.808 39.3916 343.808 40.3414 344.393 40.9272C344.979 41.5129 345.929 41.5129 346.515 40.9272L356.061 31.3812ZM302.602 31.8206H355V28.8206H302.602V31.8206Z" fill="black"/>
<rect x="489" y="121" width="192.029" height="60.6408" rx="30.3204" fill="#5856D6"/>
<path d="M511.63 164.107H516.069V155.134H520.591L525.4 164.107H530.353L525.053 154.392C527.937 153.232 529.456 150.767 529.456 147.441C529.456 142.764 526.441 139.605 520.818 139.605H511.63V164.107ZM516.069 151.449V143.314H520.136C523.45 143.314 524.934 144.833 524.934 147.441C524.934 150.05 523.45 151.449 520.16 151.449H516.069ZM541.222 164.466C545.505 164.466 548.448 162.372 549.214 159.178L545.17 158.723C544.584 160.278 543.148 161.092 541.282 161.092C538.482 161.092 536.628 159.249 536.592 156.103H549.393V154.775C549.393 148.327 545.517 145.491 540.995 145.491C535.731 145.491 532.297 149.356 532.297 155.026C532.297 160.793 535.683 164.466 541.222 164.466ZM536.604 153.184C536.736 150.839 538.47 148.865 541.055 148.865C543.543 148.865 545.218 150.684 545.242 153.184H536.604ZM561.073 164.466C565.69 164.466 568.634 161.726 568.945 157.826H564.805C564.434 159.8 563.011 160.936 561.108 160.936C558.405 160.936 556.658 158.675 556.658 154.919C556.658 151.21 558.441 148.985 561.108 148.985C563.19 148.985 564.47 150.325 564.805 152.095H568.945C568.645 148.111 565.535 145.491 561.049 145.491C555.665 145.491 552.267 149.38 552.267 154.99C552.267 160.554 555.581 164.466 561.073 164.466ZM572.501 164.107H576.832V153.304C576.832 150.971 578.59 149.32 580.971 149.32C581.701 149.32 582.61 149.451 582.981 149.571V145.587C582.586 145.515 581.904 145.467 581.426 145.467C579.32 145.467 577.561 146.664 576.891 148.793H576.7V145.731H572.501V164.107ZM597.57 156.378C597.57 159.178 595.572 160.565 593.658 160.565C591.577 160.565 590.189 159.094 590.189 156.761V145.731H585.858V157.431C585.858 161.846 588.37 164.346 591.983 164.346C594.735 164.346 596.673 162.898 597.511 160.841H597.702V164.107H601.901V145.731H597.57V156.378ZM606.355 164.107H610.685V145.731H606.355V164.107ZM608.532 143.123C609.908 143.123 611.032 142.07 611.032 140.778C611.032 139.474 609.908 138.421 608.532 138.421C607.144 138.421 606.02 139.474 606.02 140.778C606.02 142.07 607.144 143.123 608.532 143.123ZM624.315 145.731H620.69V141.328H616.359V145.731H613.751V149.08H616.359V159.297C616.335 162.755 618.847 164.454 622.102 164.358C623.334 164.322 624.183 164.083 624.65 163.927L623.92 160.542C623.681 160.601 623.19 160.709 622.652 160.709C621.563 160.709 620.69 160.326 620.69 158.58V149.08H624.315V145.731ZM635.875 164.466C640.158 164.466 643.101 162.372 643.866 159.178L639.823 158.723C639.236 160.278 637.801 161.092 635.934 161.092C633.135 161.092 631.281 159.249 631.245 156.103H644.046V154.775C644.046 148.327 640.169 145.491 635.647 145.491C630.383 145.491 626.95 149.356 626.95 155.026C626.95 160.793 630.335 164.466 635.875 164.466ZM631.257 153.184C631.388 150.839 633.123 148.865 635.707 148.865C638.196 148.865 639.87 150.684 639.894 153.184H631.257ZM647.71 164.107H652.04V153.304C652.04 150.971 653.799 149.32 656.18 149.32C656.909 149.32 657.819 149.451 658.19 149.571V145.587C657.795 145.515 657.113 145.467 656.634 145.467C654.529 145.467 652.77 146.664 652.1 148.793H651.909V145.731H647.71V164.107Z" fill="white"/>
<path d="M459.883 64.6409C459.883 63.8124 459.212 63.1409 458.383 63.1409C457.555 63.1409 456.883 63.8124 456.883 64.6409H459.883ZM583.954 118.061C584.54 118.647 585.489 118.647 586.075 118.061L595.621 108.515C596.207 107.929 596.207 106.979 595.621 106.393C595.035 105.808 594.086 105.808 593.5 106.393L585.015 114.879L576.529 106.393C575.943 105.808 574.994 105.808 574.408 106.393C573.822 106.979 573.822 107.929 574.408 108.515L583.954 118.061ZM456.883 64.6409V66.8205H459.883V64.6409H456.883ZM482.383 92.3205H561.015V89.3205H482.383V92.3205ZM583.515 114.82V117H586.515V114.82H583.515ZM561.015 92.3205C573.441 92.3205 583.515 102.394 583.515 114.82H586.515C586.515 100.737 575.098 89.3205 561.015 89.3205V92.3205ZM456.883 66.8205C456.883 80.9038 468.3 92.3205 482.383 92.3205V89.3205C469.957 89.3205 459.883 79.2469 459.883 66.8205H456.883Z" fill="black"/>
<rect x="494" y="242" width="181.922" height="60.6408" rx="30.3204" fill="#68AFE6"/>
<path d="M519.908 260.605H515.039L523.665 285.107H529.144L537.782 260.605H532.901L526.536 279.891H526.285L519.908 260.605ZM544.164 285.478C547.048 285.478 548.77 284.126 549.56 282.582H549.703V285.107H553.867V272.808C553.867 267.951 549.907 266.491 546.402 266.491C542.537 266.491 539.57 268.214 538.613 271.564L542.657 272.138C543.088 270.882 544.308 269.805 546.425 269.805C548.435 269.805 549.536 270.834 549.536 272.641V272.712C549.536 273.957 548.232 274.016 544.99 274.363C541.425 274.746 538.015 275.811 538.015 279.95C538.015 283.563 540.659 285.478 544.164 285.478ZM545.289 282.295C543.482 282.295 542.19 281.47 542.19 279.879C542.19 278.216 543.638 277.522 545.576 277.247C546.713 277.091 548.986 276.804 549.548 276.349V278.515C549.548 280.561 547.897 282.295 545.289 282.295ZM566.237 285.466C570.855 285.466 573.798 282.726 574.109 278.826H569.97C569.599 280.8 568.175 281.936 566.273 281.936C563.569 281.936 561.823 279.675 561.823 275.919C561.823 272.21 563.605 269.985 566.273 269.985C568.355 269.985 569.635 271.325 569.97 273.095H574.109C573.81 269.111 570.699 266.491 566.213 266.491C560.83 266.491 557.432 270.38 557.432 275.99C557.432 281.554 560.746 285.466 566.237 285.466ZM582.953 285.478C585.836 285.478 587.559 284.126 588.349 282.582H588.492V285.107H592.656V272.808C592.656 267.951 588.696 266.491 585.19 266.491C581.326 266.491 578.359 268.214 577.402 271.564L581.446 272.138C581.876 270.882 583.097 269.805 585.214 269.805C587.224 269.805 588.325 270.834 588.325 272.641V272.712C588.325 273.957 587.021 274.016 583.779 274.363C580.213 274.746 576.804 275.811 576.804 279.95C576.804 283.563 579.448 285.478 582.953 285.478ZM584.078 282.295C582.271 282.295 580.979 281.47 580.979 279.879C580.979 278.216 582.427 277.522 584.365 277.247C585.501 277.091 587.774 276.804 588.337 276.349V278.515C588.337 280.561 586.686 282.295 584.078 282.295ZM601.341 274.34C601.341 271.684 602.944 270.152 605.229 270.152C607.466 270.152 608.806 271.624 608.806 274.076V285.107H613.137V273.406C613.149 269.004 610.637 266.491 606.844 266.491C604.093 266.491 602.202 267.807 601.365 269.853H601.15V266.731H597.01V285.107H601.341V274.34ZM625.555 285.466C630.173 285.466 633.116 282.726 633.427 278.826H629.288C628.917 280.8 627.493 281.936 625.591 281.936C622.887 281.936 621.141 279.675 621.141 275.919C621.141 272.21 622.923 269.985 625.591 269.985C627.673 269.985 628.953 271.325 629.288 273.095H633.427C633.128 269.111 630.018 266.491 625.531 266.491C620.148 266.491 616.75 270.38 616.75 275.99C616.75 281.554 620.064 285.466 625.555 285.466ZM639.675 291.998C643.049 291.998 644.999 290.263 646.04 287.332L653.421 266.755L648.791 266.731L644.544 280.608H644.353L640.118 266.731H635.524L642.188 285.49L641.817 286.482C641.015 288.576 639.747 288.72 637.857 288.169L636.852 291.543C637.438 291.782 638.491 291.998 639.675 291.998Z" fill="white"/>
<path d="M586.515 185.641C586.515 184.812 585.843 184.141 585.015 184.141C584.186 184.141 583.515 184.812 583.515 185.641H586.515ZM583.901 239.061C584.486 239.647 585.436 239.647 586.022 239.061L595.568 229.515C596.154 228.929 596.154 227.979 595.568 227.393C594.982 226.808 594.032 226.808 593.446 227.393L584.961 235.879L576.476 227.393C575.89 226.808 574.94 226.808 574.355 227.393C573.769 227.979 573.769 228.929 574.355 229.515L583.901 239.061ZM583.515 185.641V211.794H586.515V185.641H583.515ZM583.461 211.847V238H586.461V211.847H583.461ZM584.988 210.32C584.145 210.32 583.461 211.004 583.461 211.847H586.461C586.461 212.661 585.802 213.32 584.988 213.32V210.32ZM583.515 211.794C583.515 210.98 584.174 210.32 584.988 210.32V213.32C585.831 213.32 586.515 212.637 586.515 211.794H583.515Z" fill="black"/>
<rect x="616" y="383" width="154.971" height="60.6408" rx="30.3204" fill="#5856D6"/>
<path d="M641.908 401.605H637.039L645.665 426.107H651.144L659.782 401.605H654.901L648.536 420.891H648.285L641.908 401.605ZM662.818 426.107H667.148V407.731H662.818V426.107ZM664.995 405.123C666.371 405.123 667.495 404.07 667.495 402.778C667.495 401.474 666.371 400.421 664.995 400.421C663.607 400.421 662.483 401.474 662.483 402.778C662.483 404.07 663.607 405.123 664.995 405.123ZM679.737 426.466C684.02 426.466 686.963 424.372 687.729 421.178L683.685 420.723C683.099 422.278 681.663 423.092 679.797 423.092C676.997 423.092 675.143 421.249 675.107 418.103H687.908V416.775C687.908 410.327 684.032 407.491 679.51 407.491C674.246 407.491 670.812 411.356 670.812 417.026C670.812 422.793 674.198 426.466 679.737 426.466ZM675.119 415.184C675.251 412.839 676.985 410.865 679.569 410.865C682.058 410.865 683.733 412.684 683.757 415.184H675.119ZM695.266 426.107H699.788L703.233 413.689H703.485L706.93 426.107H711.44L716.644 407.731H712.218L709.036 420.58H708.856L705.554 407.731H701.188L697.886 420.651H697.718L694.488 407.731H690.073L695.266 426.107ZM727.31 426.466C731.593 426.466 734.536 424.372 735.302 421.178L731.258 420.723C730.672 422.278 729.236 423.092 727.37 423.092C724.57 423.092 722.716 421.249 722.68 418.103H735.481V416.775C735.481 410.327 731.605 407.491 727.083 407.491C721.819 407.491 718.385 411.356 718.385 417.026C718.385 422.793 721.771 426.466 727.31 426.466ZM722.692 415.184C722.824 412.839 724.558 410.865 727.142 410.865C729.631 410.865 731.306 412.684 731.33 415.184H722.692ZM739.145 426.107H743.476V415.304C743.476 412.971 745.234 411.32 747.615 411.32C748.345 411.32 749.254 411.451 749.625 411.571V407.587C749.23 407.515 748.548 407.467 748.07 407.467C745.964 407.467 744.205 408.664 743.536 410.793H743.344V407.731H739.145V426.107Z" fill="white"/>
<path d="M692.425 380.061C693.011 380.647 693.96 380.647 694.546 380.061L704.092 370.515C704.678 369.929 704.678 368.979 704.092 368.394C703.506 367.808 702.557 367.808 701.971 368.394L693.485 376.879L685 368.394C684.414 367.808 683.465 367.808 682.879 368.394C682.293 368.979 682.293 369.929 682.879 370.515L692.425 380.061ZM691.985 285.884V379H694.985V285.884H691.985ZM679.922 273.821C686.585 273.821 691.985 279.221 691.985 285.884H694.985C694.985 277.565 688.241 270.821 679.922 270.821V273.821Z" fill="black"/>
<rect y="242" width="181.922" height="60.6408" rx="30.3204" fill="#68AFE6"/>
<path d="M25.9083 260.605H21.0391L29.6648 285.107H35.1441L43.7818 260.605H38.9007L32.5361 279.891H32.2848L25.9083 260.605ZM50.1643 285.478C53.0475 285.478 54.7703 284.126 55.5599 282.582H55.7035V285.107H59.8668V272.808C59.8668 267.951 55.9068 266.491 52.4015 266.491C48.5373 266.491 45.5703 268.214 44.6133 271.564L48.6569 272.138C49.0876 270.882 50.3079 269.805 52.4254 269.805C54.4353 269.805 55.536 270.834 55.536 272.641V272.712C55.536 273.957 54.2319 274.016 50.9898 274.363C47.4247 274.746 44.0151 275.811 44.0151 279.95C44.0151 283.563 46.659 285.478 50.1643 285.478ZM51.2889 282.295C49.4824 282.295 48.1904 281.47 48.1904 279.879C48.1904 278.216 49.6379 277.522 51.576 277.247C52.7126 277.091 54.9856 276.804 55.5479 276.349V278.515C55.5479 280.561 53.897 282.295 51.2889 282.295ZM72.2371 285.466C76.855 285.466 79.798 282.726 80.1091 278.826H75.9697C75.5988 280.8 74.1752 281.936 72.273 281.936C69.5692 281.936 67.8225 279.675 67.8225 275.919C67.8225 272.21 69.6051 269.985 72.273 269.985C74.3546 269.985 75.6347 271.325 75.9697 273.095H80.1091C79.81 269.111 76.6995 266.491 72.2131 266.491C66.8295 266.491 63.4319 270.38 63.4319 275.99C63.4319 281.554 66.7458 285.466 72.2371 285.466ZM88.9531 285.478C91.8363 285.478 93.5591 284.126 94.3487 282.582H94.4922V285.107H98.6555V272.808C98.6555 267.951 94.6956 266.491 91.1903 266.491C87.3261 266.491 84.3591 268.214 83.402 271.564L87.4457 272.138C87.8764 270.882 89.0967 269.805 91.2142 269.805C93.2241 269.805 94.3247 270.834 94.3247 272.641V272.712C94.3247 273.957 93.0207 274.016 89.7786 274.363C86.2135 274.746 82.8039 275.811 82.8039 279.95C82.8039 283.563 85.4478 285.478 88.9531 285.478ZM90.0777 282.295C88.2712 282.295 86.9791 281.47 86.9791 279.879C86.9791 278.216 88.4267 277.522 90.3648 277.247C91.5013 277.091 93.7744 276.804 94.3367 276.349V278.515C94.3367 280.561 92.6857 282.295 90.0777 282.295ZM107.341 274.34C107.341 271.684 108.944 270.152 111.229 270.152C113.466 270.152 114.806 271.624 114.806 274.076V285.107H119.137V273.406C119.149 269.004 116.637 266.491 112.844 266.491C110.093 266.491 108.202 267.807 107.365 269.853H107.15V266.731H103.01V285.107H107.341V274.34ZM131.555 285.466C136.173 285.466 139.116 282.726 139.427 278.826H135.288C134.917 280.8 133.493 281.936 131.591 281.936C128.887 281.936 127.141 279.675 127.141 275.919C127.141 272.21 128.923 269.985 131.591 269.985C133.673 269.985 134.953 271.325 135.288 273.095H139.427C139.128 269.111 136.018 266.491 131.531 266.491C126.148 266.491 122.75 270.38 122.75 275.99C122.75 281.554 126.064 285.466 131.555 285.466ZM145.675 291.998C149.049 291.998 150.999 290.263 152.04 287.332L159.421 266.755L154.791 266.731L150.544 280.608H150.353L146.118 266.731H141.524L148.188 285.49L147.817 286.482C147.015 288.576 145.747 288.72 143.857 288.169L142.852 291.543C143.438 291.782 144.491 291.998 145.675 291.998Z" fill="white"/>
<path d="M233 152.82C233.828 152.82 234.5 152.149 234.5 151.32C234.5 150.492 233.828 149.82 233 149.82V152.82ZM89.9005 239.061C90.4863 239.646 91.4361 239.646 92.0218 239.061L101.568 229.515C102.154 228.929 102.154 227.979 101.568 227.393C100.982 226.808 100.032 226.808 99.4465 227.393L90.9612 235.879L82.4759 227.393C81.8901 226.808 80.9404 226.808 80.3546 227.393C79.7688 227.979 79.7688 228.929 80.3546 229.515L89.9005 239.061ZM233 149.82H114.961V152.82H233V149.82ZM89.4612 175.32V238H92.4612V175.32H89.4612ZM114.961 149.82C100.878 149.82 89.4612 161.237 89.4612 175.32H92.4612C92.4612 162.894 102.535 152.82 114.961 152.82V149.82Z" fill="black"/>
</svg>
