<svg width="36" height="42" viewBox="0 0 36 42" fill="none" xmlns="http://www.w3.org/2000/svg">
<path fill-rule="evenodd" clip-rule="evenodd" d="M20.471 41.2604L20.4698 41.2611C19.6411 41.7251 18.6777 42 17.8099 42C16.9175 42 15.9849 41.7111 15.1935 41.285L15.1683 41.2714L15.1433 41.2573C10.1858 38.4643 6.38337 36.2423 3.89834 33.7754C2.59089 32.4774 1.57853 31.0532 0.914276 29.3739C0.254853 27.7068 0 25.9437 0 24.0475V10.4139C0 9.0251 0.314318 7.63073 1.30687 6.45772C2.19712 5.40561 3.36896 4.87449 4.16299 4.54364L4.17469 4.53876L4.18644 4.53399C6.28516 3.68027 13.2268 1.03962 15.5001 0.384606L15.5254 0.37732L15.5508 0.37048C15.5766 0.363537 15.6051 0.355739 15.6362 0.347241C16.0473 0.234859 16.9064 0 17.8099 0C18.7175 0 19.5626 0.190282 20.2556 0.421277L20.2736 0.427281L20.2916 0.433512C22.3835 1.16039 29.2558 3.62968 31.4535 4.54225L31.4632 4.5463L31.473 4.55042C32.2584 4.88307 33.4331 5.41573 34.3205 6.46539C35.3159 7.64289 35.6198 9.03778 35.6198 10.4139V24.0475C35.6198 25.942 35.3665 27.7051 34.7095 29.3726C34.0476 31.0528 33.0376 32.4794 31.7304 33.7798C29.2449 36.2523 25.4407 38.4742 20.471 41.2604Z" fill="#68AFE6" fill-opacity="0.3"/>
<path d="M17.8099 39C18.095 39 18.5584 38.8931 19.004 38.6436C29.1446 32.9584 32.6198 30.5525 32.6198 24.0475V10.4139C32.6198 8.54257 31.8178 7.95446 30.303 7.31287C28.2 6.4396 21.4099 3.99802 19.3069 3.26733C18.8257 3.10693 18.3089 3 17.8099 3C17.3109 3 16.7941 3.14257 16.3307 3.26733C14.2277 3.87327 7.4198 6.45743 5.31683 7.31287C3.8198 7.93663 3 8.54257 3 10.4139V24.0475C3 30.5525 6.49307 32.9406 16.6158 38.6436C17.0792 38.8931 17.5248 39 17.8099 39ZM17.8099 35.7743C17.5248 35.7743 17.2396 35.6673 16.705 35.3465C8.47129 30.3564 5.83366 28.8951 5.83366 23.3881V10.9663C5.83366 10.3604 5.94059 10.1287 6.4396 9.93267C9.14851 8.86337 14.4059 7.09901 17.097 6.0297C17.3822 5.90495 17.6139 5.86931 17.8099 5.86931C18.0059 5.86931 18.2376 5.92277 18.5228 6.0297C21.2139 7.09901 26.4356 8.98812 29.198 9.93267C29.6792 10.1109 29.7861 10.3604 29.7861 10.9663V23.3881C29.7861 28.8951 27.1485 30.3386 18.9149 35.3465C18.398 35.6673 18.095 35.7743 17.8099 35.7743ZM15.8673 28.5921C16.4554 28.5921 16.9545 28.3069 17.3109 27.7723L25.4554 14.9406C25.6693 14.602 25.8832 14.2099 25.8832 13.8C25.8832 13.0158 25.1703 12.499 24.4396 12.499C23.9762 12.499 23.5307 12.7663 23.1921 13.301L15.796 25.1703L12.2851 20.6257C11.8574 20.0554 11.4653 19.8951 10.9842 19.8951C10.2 19.8951 9.59406 20.5188 9.59406 21.3208C9.59406 21.6951 9.75446 22.0871 10.004 22.4257L14.3525 27.7723C14.798 28.3604 15.2792 28.5921 15.8673 28.5921Z" fill="#68AFE6"/>
<path d="M15.8673 28.5921C16.4554 28.5921 16.9545 28.3069 17.3109 27.7723L25.4554 14.9406C25.6693 14.602 25.8832 14.2099 25.8832 13.8C25.8832 13.0159 25.1703 12.499 24.4396 12.499C23.9762 12.499 23.5307 12.7663 23.1921 13.301L15.796 25.1703L12.2851 20.6258C11.8574 20.0555 11.4653 19.8951 10.9842 19.8951C10.2 19.8951 9.59406 20.5188 9.59406 21.3208C9.59406 21.6951 9.75445 22.0871 10.004 22.4258L14.3525 27.7723C14.798 28.3604 15.2792 28.5921 15.8673 28.5921Z" fill="white"/>
</svg>
