<svg width="67" height="50" viewBox="0 0 67 50" fill="none" xmlns="http://www.w3.org/2000/svg">
<path d="M14.3132 0.00110485L14.3173 0.00113072L14.3184 0.00114365L16.3591 0.0155134C18.9536 0.0370891 21.4179 0.506313 23.6272 1.4236H28.3589C32.0894 1.4236 35.0385 3.25935 36.9814 5.79816C38.8907 8.29303 39.8814 11.5097 39.8814 14.613C39.8814 17.8004 39.8466 19.6828 38.0803 22.14H40.0774C42.0888 19.5393 44.057 16.9802 45.6022 13.9504L45.6074 13.9402C45.9192 13.3323 46.5168 12.1983 47.5171 11.2405C48.7441 10.0658 50.3827 9.32201 52.3018 9.32201C54.0995 9.32201 55.9766 9.97445 57.4042 11.4369C58.8368 12.9044 59.4414 14.7984 59.4414 16.6054C59.4414 18.4189 58.8691 20.2431 58.3526 21.594H59.3287C63.6816 21.594 67 25.1141 67 29.2797C67 30.0784 66.8866 30.9388 66.6132 31.7905C66.7396 32.3828 66.7988 32.9774 66.7988 33.5476C66.7988 34.7205 66.5406 35.9223 66.0078 37.0212C66.0467 37.3481 66.066 37.676 66.066 38.0023C66.066 39.7641 65.4919 41.2768 64.6225 42.471C64.5355 44.5941 63.5758 46.3373 62.2491 47.5418C61.0036 48.6726 59.5805 49.2147 58.5396 49.4866C57.0734 49.8757 55.1178 50.0142 53.0552 49.9988L53.0511 49.9988L53.0501 49.9988L51.0093 49.9844C48.4149 49.9629 45.9505 49.4936 43.7412 48.5764H39.0095C35.279 48.5764 32.33 46.7406 30.387 44.2018C28.4777 41.7069 27.487 38.4902 27.487 35.3869C27.487 32.1996 28.2058 30.3858 29.477 27.8434L28.905 27.8599H27.2911C25.2796 30.4607 23.3114 33.0198 21.7662 36.0496L21.761 36.0597C21.4493 36.6676 20.8516 37.8016 19.8513 38.7594C18.6243 39.9342 16.9857 40.6779 15.0667 40.6779C13.2689 40.6779 11.3918 40.0255 9.96422 38.5631C8.53166 37.0956 7.92702 35.2015 7.92702 33.3946C7.92702 31.5811 8.4993 29.7568 9.01584 28.406H8.03975C3.68683 28.406 0.368408 24.8859 0.368408 20.7203C0.368408 19.9215 0.481886 19.0611 0.755196 18.2094C0.628794 17.6172 0.569588 17.0226 0.569588 16.4524C0.569588 15.2794 0.827862 14.0776 1.36067 12.9787C1.32173 12.6518 1.30246 12.3239 1.30246 11.9977C1.30246 10.2358 1.87656 8.72318 2.7459 7.52899C2.83291 5.40585 3.79268 3.66269 5.11929 2.4582C6.36481 1.32733 7.78793 0.785261 8.82888 0.513377C10.2951 0.124274 12.2507 -0.0142347 14.3132 0.00110485Z" fill="#68AFE6" fill-opacity="0.3"/>
<path fill-rule="evenodd" clip-rule="evenodd" d="M28.905 25.3176H26.0417C25.7979 25.6349 25.5512 25.9539 25.3027 26.2752C23.2994 28.8652 21.1763 31.6103 19.5014 34.8945L19.4988 34.8996C19.2006 35.4809 18.7631 36.2815 18.093 36.923C17.3102 37.6726 16.2914 38.1356 15.0667 38.1356C13.8755 38.1356 12.6805 37.7061 11.7835 36.7872C10.884 35.8658 10.4694 34.6445 10.4694 33.3946C10.4694 31.4939 11.3191 29.4534 11.8906 28.0811L12.0359 27.7326C12.307 27.0832 12.5345 26.5383 12.7096 26.038C12.7308 25.9772 12.7506 25.9191 12.7689 25.8636H8.03973C5.13315 25.8636 2.91077 23.5244 2.91077 20.7203C2.91077 19.9391 3.06532 19.1066 3.42897 18.3495C3.41808 18.3184 3.40768 18.2877 3.39775 18.2576C3.20353 17.6682 3.11195 17.0425 3.11195 16.4524C3.11195 15.3926 3.4197 14.3183 4.02797 13.4348C3.90559 12.9658 3.84481 12.4801 3.84481 11.9977C3.84481 10.502 4.45309 9.29317 5.31131 8.42599C5.29193 8.23922 5.28181 8.04561 5.28181 7.84476C5.28181 6.36072 5.91681 5.16806 6.82829 4.34048C7.66597 3.57991 8.66503 3.18332 9.476 2.97202C10.6131 2.66935 12.3025 2.52861 14.2942 2.54342L16.338 2.55781C18.8269 2.57851 21.1191 3.06266 23.0985 3.96598H28.3589C33.9948 3.96598 37.339 9.42311 37.339 14.613C37.339 17.3494 36.5765 19.9286 35.1654 21.8916C33.7452 23.8673 31.5674 25.3176 28.905 25.3176ZM16.3168 5.10011C23.2288 5.15759 27.6404 9.28177 27.5541 14.7136C27.4967 18.2343 26.5626 20.4041 24.6514 22.9476C24.2363 23.4976 23.7973 24.0646 23.3437 24.6506C21.3318 27.2493 19.0305 30.2218 17.2365 33.7395C16.6617 34.8603 16.13 35.5932 15.0666 35.5932C13.9026 35.5932 13.0117 34.7741 13.0117 33.3946C13.0117 31.9918 13.7191 30.2988 14.3792 28.7189C14.9565 27.337 15.4977 26.0418 15.4977 25.1031C15.4977 24.011 14.6211 23.3212 13.2847 23.3212H8.03969C6.57395 23.3212 5.45309 22.1573 5.45309 20.7203C5.45309 19.8868 5.74049 19.1971 6.2147 18.8091C6.45899 18.5935 6.5021 18.4498 6.27218 18.2343C5.86982 17.875 5.65427 17.1278 5.65427 16.4524C5.65427 15.4752 6.11411 14.6418 6.7895 14.2538C7.04816 14.0813 7.0769 13.8945 6.90446 13.679C6.58832 13.2623 6.38714 12.6587 6.38714 11.9977C6.38714 10.805 7.16312 9.94279 8.0828 9.56917C8.26961 9.49732 8.28398 9.33925 8.16902 9.15244C7.96784 8.82193 7.82414 8.41957 7.82414 7.84477C7.82414 6.43651 8.95937 5.73239 10.1233 5.43062C10.9281 5.21507 12.3507 5.07137 14.2763 5.08574L16.3168 5.10011ZM28.3588 6.50837C32.0376 6.50837 34.7966 10.2015 34.7966 14.613C34.7966 19.1827 32.2387 22.7752 28.9049 22.7752H26.7494C28.0571 21.1514 29.4941 18.4929 29.5516 14.7567C29.609 11.3942 28.402 8.44831 25.7291 6.50837H28.3588Z" fill="#68AFE6"/>
<path fill-rule="evenodd" clip-rule="evenodd" d="M38.4634 24.6824H41.3267C41.5701 24.3655 41.8165 24.0469 42.0648 23.726L42.0657 23.7248C44.0689 21.1347 46.1921 18.3897 47.867 15.1054L47.8696 15.1004C48.1677 14.519 48.6053 13.7185 49.2753 13.0769C50.0582 12.3274 51.077 11.8644 52.3017 11.8644C53.4929 11.8644 54.6879 12.2939 55.5849 13.2128C56.4843 14.1342 56.899 15.3554 56.899 16.6054C56.899 18.5061 56.0493 20.5466 55.4778 21.9189L55.3325 22.2674C55.0613 22.9169 54.8339 23.4616 54.6588 23.9619C54.6375 24.0228 54.6178 24.0809 54.5995 24.1364H59.3286C62.2352 24.1364 64.4576 26.4756 64.4576 29.2797C64.4576 30.0609 64.3031 30.8934 63.9394 31.6505L63.9509 31.6838C63.9577 31.7035 63.9643 31.7231 63.9706 31.7424C64.1649 32.3318 64.2564 32.9575 64.2564 33.5476C64.2564 34.6074 63.9487 35.6816 63.3404 36.5652C63.4628 37.0342 63.5236 37.5199 63.5236 38.0023C63.5236 39.498 62.9153 40.7068 62.0571 41.574C62.0764 41.7608 62.0866 41.9544 62.0866 42.1552C62.0866 43.6393 61.4516 44.8319 60.5401 45.6595C59.7024 46.4201 58.7033 46.8167 57.8924 47.028C56.7553 47.3306 55.0659 47.4714 53.0742 47.4566L51.0304 47.4422C48.5415 47.4215 46.2493 46.9373 44.2699 46.034H39.0095C33.3736 46.034 30.0294 40.5769 30.0294 35.387C30.0294 32.6506 30.7919 30.0714 32.203 28.1083C33.6231 26.1327 35.801 24.6824 38.4634 24.6824ZM51.0515 44.8999C44.1396 44.8424 39.728 40.7182 39.8142 35.2864C39.8717 31.7657 40.8057 29.5959 42.7169 27.0524C43.1315 26.5031 43.5699 25.9368 44.023 25.3516L44.0247 25.3494C46.0366 22.7507 48.3378 19.7782 50.1318 16.2605C50.7066 15.1397 51.2383 14.4068 52.3017 14.4068C53.4657 14.4068 54.3566 15.2259 54.3566 16.6054C54.3566 18.0082 53.6492 19.7012 52.9891 21.2811C52.4118 22.663 51.8706 23.9582 51.8706 24.8969C51.8706 25.989 52.7472 26.6787 54.0836 26.6787H59.3286C60.7944 26.6787 61.9152 27.8427 61.9152 29.2797C61.9152 30.1132 61.6278 30.8029 61.1536 31.1909C60.9093 31.4065 60.8662 31.5502 61.0961 31.7657C61.4985 32.125 61.7141 32.8722 61.7141 33.5476C61.7141 34.5248 61.2542 35.3582 60.5788 35.7462C60.3202 35.9186 60.2914 36.1055 60.4639 36.321C60.78 36.7377 60.9812 37.3413 60.9812 38.0023C60.9812 39.195 60.2052 40.0572 59.2855 40.4308C59.0987 40.5027 59.0843 40.6607 59.1993 40.8476C59.4005 41.1781 59.5442 41.5804 59.5442 42.1552C59.5442 43.5635 58.409 44.2676 57.245 44.5694C56.4403 44.7849 55.0176 44.9286 53.0921 44.9143L51.0515 44.8999ZM39.0095 43.4916C35.3308 43.4916 32.5717 39.7985 32.5717 35.387C32.5717 30.8173 35.1296 27.2248 38.4634 27.2248H40.6189C39.3112 28.8486 37.8742 31.5071 37.8168 35.2433C37.7593 38.6058 38.9664 41.5517 41.6392 43.4916H39.0095Z" fill="#68AFE6"/>
</svg>
