<svg width="74" height="16" viewBox="0 0 74 16" fill="none" xmlns="http://www.w3.org/2000/svg">
<path d="M13.6307 7.72727C13.6307 2.96875 10.6761 0.255681 6.8196 0.255681C2.94176 0.255681 0.00852273 2.96875 0.00852273 7.72727C0.00852273 12.4645 2.94176 15.1989 6.8196 15.1989C10.6761 15.1989 13.6307 12.4858 13.6307 7.72727ZM10.5128 7.72727C10.5128 10.8097 9.04972 12.4787 6.8196 12.4787C4.58239 12.4787 3.12642 10.8097 3.12642 7.72727C3.12642 4.64489 4.58239 2.97585 6.8196 2.97585C9.04972 2.97585 10.5128 4.64489 10.5128 7.72727ZM15.2837 6.47017H18.771V15H21.6545V6.47017H25.1701V4.09091H15.2837V6.47017ZM27.0043 15H30.0298V11.1293H31.1591L33.8509 15H37.4446L33.5455 9.50284L37.402 4.09091H33.8509L30.8821 8.32386H30.0298V4.09091H27.0043V15ZM38.0838 15H38.9929C41.3082 15 42.5369 13.4659 42.7216 9.80114L42.892 6.47017H45.5838V15H48.4673V4.09091H40.1719L39.9943 8.92045C39.8878 11.6832 39.4616 12.5994 38.4318 12.5994H38.0696L38.0838 15ZM53.7035 11.0085V4.09091H50.8129V15H53.8171L57.7305 8.06108V15H60.614V4.09091H57.631L53.7035 11.0085ZM63.0394 15H66.065V11.1293H67.1942L69.886 15H73.4798L69.5806 9.50284L73.4371 4.09091H69.886L66.9173 8.32386H66.065V4.09091H63.0394V15Z" fill="black"/>
</svg>
