<svg width="200" height="193" viewBox="0 0 200 193" fill="none" xmlns="http://www.w3.org/2000/svg">
<path fill-rule="evenodd" clip-rule="evenodd" d="M34.6681 162.221C27.5754 159.763 20.9367 155.852 15.288 150.174C4.22895 139.06 0 124.286 0 109.647V56.6009C0 42.0433 4.14783 27.2147 15.27 16.0368C26.4125 4.83815 41.2741 0.599976 56.0009 0.599976H143.999C158.766 0.599976 173.619 4.8789 184.744 16.0783C195.842 27.25 200 42.0594 200 56.6009V109.647C200 124.196 195.857 139.037 184.744 150.224C173.596 161.448 158.709 165.697 143.929 165.648H143.921H143.916L107.626 165.59L89.4222 182.11L89.4092 182.122L89.3973 182.133L89.2746 182.245C85.7731 185.444 77.6931 192.825 65.0116 192.825C56.952 192.825 48.3334 189.734 42.0992 182.452C36.4904 175.901 34.7865 168.28 34.6681 162.221Z" fill="#68AFE6" fill-opacity="0.3"/>
<path fill-rule="evenodd" clip-rule="evenodd" d="M65.0112 180.811C72.8609 180.811 77.948 176.318 81.3088 173.249L81.323 173.236L102.995 153.569L143.956 153.634H143.961C156.5 153.677 167.938 150.096 176.22 141.757C184.484 133.438 187.986 122.015 187.986 109.647V56.6012C187.986 44.255 184.477 32.8568 176.22 24.545C167.951 16.2201 156.53 12.614 143.999 12.614H56.0005C43.489 12.614 32.0646 16.1905 23.7859 24.5108C15.5175 32.8207 12.0137 44.2285 12.0137 56.6012V109.647C12.0137 122.06 15.576 133.431 23.804 141.701C29.9805 147.908 37.8979 151.476 46.6753 152.872V161.53C46.6753 165.731 47.7783 170.613 51.2252 174.639C54.876 178.904 59.9707 180.811 65.0112 180.811ZM65.0112 168.797C67.845 168.797 69.8799 167.416 73.2223 164.364L98.3645 141.547L143.999 141.62C164.563 141.693 175.971 129.993 175.971 109.647V56.6012C175.971 36.3273 164.563 24.6281 143.999 24.6281H56.0005C35.4363 24.6281 24.0277 36.2546 24.0277 56.6012V109.647C24.0277 129.993 35.5816 141.547 55.7098 141.547H58.6893V161.53C58.6893 165.963 61.0145 168.797 65.0112 168.797Z" fill="#68AFE6"/>
<path fill-rule="evenodd" clip-rule="evenodd" d="M55.4196 82.1068C53.0218 82.1068 51.0596 84.1413 51.0596 86.4665C51.0596 87.4806 51.3717 88.4022 51.8984 89.1438C52.6935 90.2625 53.9775 90.9718 55.4196 90.9718H83.614C85.2114 90.9718 86.6154 90.1011 87.3751 88.7678C87.7553 88.0996 87.974 87.3157 87.974 86.4665C87.974 84.1413 86.0118 82.1068 83.614 82.1068H55.4196ZM148.235 102.6C147.433 101.487 146.134 100.782 144.653 100.782H131.646C130.048 100.782 128.644 101.653 127.885 102.986C127.505 103.654 127.286 104.438 127.286 105.287C127.286 107.685 129.248 109.647 131.646 109.647H144.653C147.124 109.647 149.086 107.685 149.086 105.287C149.086 104.268 148.771 103.343 148.235 102.6ZM120.653 102.986C119.888 101.653 118.468 100.782 116.822 100.782H82.0155C80.4177 100.782 79.0137 101.653 78.2544 102.986C77.8738 103.654 77.6554 104.438 77.6554 105.287C77.6554 107.685 79.6173 109.647 82.0155 109.647H116.822C119.293 109.647 121.255 107.685 121.255 105.287C121.255 104.438 121.036 103.654 120.653 102.986ZM144.653 90.9718C146.134 90.9718 147.433 90.2668 148.235 89.1542C148.771 88.4106 149.086 87.4853 149.086 86.4665C149.086 84.1413 147.124 82.1068 144.653 82.1068H98.4376C95.9671 82.1068 94.078 84.1413 94.078 86.4665C94.078 87.3157 94.2882 88.0996 94.6608 88.7678C95.4039 90.1011 96.7918 90.9718 98.4376 90.9718H144.653Z" fill="white"/>
<path d="M55.4196 109.647C53.0218 109.647 51.0596 107.685 51.0596 105.287C51.0596 104.273 51.3717 103.352 51.8984 102.61C52.6935 101.491 53.9775 100.782 55.4196 100.782H67.1915C68.8377 100.782 70.2578 101.653 71.0225 102.986C71.4054 103.654 71.6242 104.438 71.6242 105.287C71.6242 107.685 69.6623 109.647 67.1915 109.647H55.4196Z" fill="white"/>
</svg>
